<svg width="296" height="639" viewBox="0 0 296 639" fill="none" xmlns="http://www.w3.org/2000/svg">
<g clip-path="url(#clip0_46_21392)">
<path d="M208.058 388.996L216.254 375.629L221.92 356.266C210.875 361.306 207.162 371.897 203.736 377.192L197.013 388.517C197.814 390.782 200.022 392.186 202.552 392.09C204.729 391.994 206.809 390.846 208.058 388.996Z" fill="#8A4F16"/>
<path d="M143.998 131.016H126.519V140.458H143.998V131.016Z" fill="#F1F1F1"/>
<path d="M116.626 573.125L87.814 572.679L89.3826 600.943L121.557 604.547L116.626 573.125Z" fill="#C4C4C4"/>
<path d="M79.5544 639C91.6557 639 111.056 639 111.056 639L127.543 634.183C131.609 620.593 123.029 601.676 123.029 601.676L85.1248 599.985L79.5864 607.833L70.5906 611.087L45.1395 619.54C37.6483 622.316 35.5354 627.962 37.008 635.65L38.4166 639H79.5544Z" fill="#121212"/>
<path d="M127.543 634.183L36.3357 634.119L36.976 639H126.935L127.543 634.183Z" fill="#292829"/>
<path d="M153.955 573.125L149.024 604.547L181.198 600.943L182.767 572.679L153.955 573.125Z" fill="#C4C4C4"/>
<path d="M191.027 639H232.132L233.541 635.65C235.014 627.962 232.901 622.316 225.409 619.54L199.958 611.087L190.963 607.833L185.424 599.985L147.52 601.676C147.52 601.676 138.908 620.593 143.006 634.183L159.493 639C159.525 639 178.925 639 191.027 639Z" fill="#121212"/>
<path d="M234.245 634.119L143.038 634.183L143.646 639H233.573L234.245 634.119Z" fill="#292829"/>
<path d="M200.567 156.823C187.633 147.795 165.063 136.088 143.454 136.088H127.127C105.518 136.088 82.9479 147.795 70.0143 156.823C53.0789 168.658 79.3303 201.548 79.3303 201.548C79.3303 201.548 76.1289 237.691 74.9764 275.302C74.2081 300.376 80.3547 310.074 80.3547 310.074C80.3547 310.074 89.2546 324.014 135.323 324.014C181.39 324.014 190.29 310.074 190.29 310.074C190.29 310.074 196.437 300.376 195.669 275.302C194.516 237.691 191.315 201.548 191.315 201.548C191.315 201.548 217.502 168.658 200.567 156.823Z" fill="#F1F1F1"/>
<path d="M146.527 136.566C143.55 136.279 140.541 136.088 137.563 136.088C132.473 136.088 127.543 136.152 122.677 136.375C125.558 140.618 129.88 147.094 134.234 147.221C138.812 147.349 143.454 140.905 146.527 136.566Z" fill="#8A4F16"/>
<path d="M140.829 115.544H129.88L129.912 131.558V137.555C133.05 140.331 137.756 140.299 140.861 137.555V131.558L140.829 115.544Z" fill="#8A4F16"/>
<path d="M140.829 119.69H129.88V127.442V128.559C129.88 130.026 132.249 131.334 135.291 131.366C135.323 131.366 135.355 131.366 135.419 131.366C138.492 131.366 140.829 130.026 140.829 128.559V127.442V119.69Z" fill="#824115"/>
<path d="M85.4449 43.8952C85.4449 46.3515 86.5974 48.5207 88.4222 50.0839C87.6859 51.2642 87.2377 52.604 87.2377 54.0395C87.2377 58.5375 91.3675 62.1742 96.4577 62.1742C99.8192 62.1742 102.764 60.5792 104.365 58.2185H166.152C167.753 60.5792 170.698 62.1742 174.059 62.1742C179.149 62.1742 183.279 58.5375 183.279 54.0395C183.279 52.604 182.863 51.2642 182.095 50.0839C183.92 48.5207 185.072 46.3515 185.072 43.8952C185.072 41.5345 184.016 39.3972 182.319 37.866C184.56 35.5372 185.616 32.2834 184.848 29.3166C183.791 25.1695 179.374 21.8838 174.539 21.6605C176.076 18.4385 175.244 14.4829 172.555 11.9308C169.865 9.37876 165.448 8.38985 161.702 9.47446C158.949 3.60476 152.066 1.91403 145.439 4.24277C143.038 1.65883 139.42 0 135.323 0C131.257 0 127.607 1.65883 125.238 4.24277C118.611 1.91403 111.728 3.60476 108.975 9.47446C105.23 8.38985 100.812 9.37876 98.1224 11.9308C95.4333 14.4829 94.6329 18.4385 96.1376 21.6605C91.3355 21.8838 86.8856 25.1695 85.8291 29.3166C85.0608 32.2834 86.1172 35.4734 88.2942 37.8022C86.5334 39.3334 85.4449 41.5026 85.4449 43.8952Z" fill="#422715"/>
<path d="M93.8646 92.2243H97.7063L97.6743 70.5957H91.4316C88.1982 70.5957 85.2209 72.3821 83.6842 75.2213C82.2756 77.8371 82.3076 81.0272 83.7482 83.6111L85.9572 87.5668C87.5579 90.4379 90.5992 92.2243 93.8646 92.2243Z" fill="#824115"/>
<path d="M184.624 86.7699L186.801 82.8143C188.241 80.1984 188.273 77.0403 186.833 74.4244C185.296 71.5853 182.319 69.7988 179.053 69.7988H172.811L172.875 91.4274H176.716C180.014 91.4274 183.055 89.641 184.624 86.7699Z" fill="#824115"/>
<path d="M135.355 127.06C158.885 127.028 177.933 108.016 177.901 84.5688L177.837 48.2022C177.805 24.7234 158.725 5.74255 135.195 5.77445C111.664 5.80635 92.6161 24.8191 92.6481 48.266L92.7121 84.6326C92.7441 108.111 111.824 127.092 135.355 127.06Z" fill="#8A4F16"/>
<path d="M92.36 65.3965C92.36 65.3965 91.0794 86.1318 91.9438 100.966C92.8082 115.767 109.776 131.016 135.259 131.016C160.742 131.016 177.741 115.767 178.573 100.966C179.438 86.1318 178.189 65.3965 178.189 65.3965H175.628C176.492 75.1262 176.172 88.3968 166.28 95.4468C160.325 99.6896 144.19 93.7561 135.259 93.7561C126.327 93.7561 110.192 99.6896 104.237 95.4468C94.3449 88.3968 94.0567 75.1262 94.8891 65.3965H92.36Z" fill="#422715"/>
<path d="M139.836 95.5425C141.597 94.4579 142.43 92.8947 142.141 91.3635C142.109 91.2359 141.789 90.9807 141.341 90.7255C137.628 88.5563 133.018 88.5563 129.336 90.7574C128.856 91.0445 128.536 91.2678 128.536 91.3954C128.247 92.9266 129.08 94.4898 130.841 95.5425C133.658 96.8504 136.955 96.8504 139.836 95.5425Z" fill="#824115"/>
<path d="M110.32 76.4654C110.48 75.9869 110.768 75.2851 111.28 74.5514C111.792 73.8177 112.529 73.052 113.489 72.5416C113.969 72.2864 114.514 72.0631 115.058 71.9674C115.602 71.8398 116.242 71.776 116.819 71.776C118.003 71.7441 119.156 72.0631 120.084 72.6692C121.012 73.2753 121.685 74.0729 122.165 74.8385C123.093 76.3697 123.317 77.55 123.317 77.55L123.477 77.5181C123.477 77.5181 123.541 77.1991 123.541 76.6249C123.509 76.0507 123.445 75.2213 123.061 74.2962C122.709 73.371 122.037 72.2545 120.916 71.4251C120.372 71.0104 119.732 70.6276 118.996 70.4362C118.291 70.2448 117.555 70.1172 116.819 70.1172H116.53L116.21 70.1491L115.794 70.181C115.538 70.2129 115.122 70.2767 114.738 70.3724C113.969 70.5319 113.361 70.8828 112.785 71.2337C112.177 71.5846 111.728 72.0631 111.312 72.5416C110.928 73.0201 110.64 73.4986 110.416 73.9772C110 74.9023 109.904 75.7636 109.872 76.3059C109.872 76.8801 109.936 77.1991 109.936 77.1991L110.096 77.231C110.096 77.2629 110.16 76.9439 110.32 76.4654Z" fill="#824115"/>
<path d="M123.413 77.5176C123.413 77.5176 122.229 71.4246 116.594 71.5841C110.96 71.7436 110.032 77.1986 110.032 77.1986C110.032 77.1986 111.888 80.1335 116.626 80.1016C121.333 80.1016 123.413 77.5176 123.413 77.5176Z" fill="white"/>
<path d="M120.852 75.8594C120.852 73.4987 118.931 71.5847 116.562 71.6166C114.193 71.6166 112.273 73.5306 112.305 75.8913C112.305 78.2519 114.225 80.166 116.594 80.1341C118.963 80.1341 120.884 78.22 120.852 75.8594Z" fill="#422715"/>
<path d="M118.483 75.8597C118.483 74.807 117.619 73.9775 116.594 73.9775C115.538 73.9775 114.706 74.8389 114.706 75.8597C114.706 76.9124 115.57 77.7418 116.594 77.7418C117.651 77.7737 118.483 76.9124 118.483 75.8597Z" fill="black"/>
<path d="M120.052 73.9772C120.052 73.1159 119.348 72.4141 118.483 72.4141C117.619 72.4141 116.915 73.1159 116.915 73.9772C116.915 74.8385 117.619 75.5403 118.483 75.5403C119.348 75.5722 120.052 74.8385 120.052 73.9772Z" fill="white"/>
<path d="M147.712 76.4654C147.872 75.9869 148.16 75.2851 148.672 74.5514C149.185 73.8177 149.921 73.052 150.881 72.5416C151.361 72.2864 151.906 72.0631 152.45 71.9674C152.994 71.8398 153.634 71.776 154.211 71.776C155.395 71.7441 156.548 72.0631 157.476 72.6692C158.405 73.2753 159.077 74.0729 159.557 74.8385C160.485 76.3697 160.71 77.55 160.71 77.55L160.87 77.5181C160.87 77.5181 160.934 77.1991 160.934 76.6249C160.902 76.0507 160.838 75.2213 160.453 74.2962C160.101 73.371 159.429 72.2545 158.308 71.4251C157.764 71.0104 157.124 70.6276 156.388 70.4362C155.683 70.2448 154.947 70.1172 154.211 70.1172H153.923L153.602 70.1491L153.154 70.181C152.898 70.2129 152.482 70.2767 152.098 70.3724C151.329 70.5319 150.721 70.8828 150.145 71.2337C149.537 71.5846 149.088 72.0631 148.672 72.5416C148.288 73.0201 148 73.4986 147.776 73.9772C147.36 74.9023 147.264 75.7636 147.232 76.3059C147.232 76.8801 147.296 77.1991 147.296 77.1991L147.456 77.231C147.488 77.2629 147.52 76.9439 147.712 76.4654Z" fill="#824115"/>
<path d="M160.774 77.5176C160.774 77.5176 159.589 71.4246 153.955 71.5841C148.32 71.7436 147.392 77.1986 147.392 77.1986C147.392 77.1986 149.249 80.1335 153.987 80.1016C158.693 80.1016 160.774 77.5176 160.774 77.5176Z" fill="white"/>
<path d="M158.245 75.8594C158.245 73.4987 156.324 71.5847 153.955 71.6166C151.586 71.6166 149.665 73.5306 149.697 75.8913C149.697 78.2519 151.618 80.166 153.987 80.1341C156.324 80.1341 158.245 78.22 158.245 75.8594Z" fill="#422715"/>
<path d="M155.876 75.8597C155.876 74.807 155.011 73.9775 153.987 73.9775C152.93 73.9775 152.098 74.8389 152.098 75.8597C152.098 76.9124 152.962 77.7418 153.987 77.7418C155.011 77.7737 155.876 76.9124 155.876 75.8597Z" fill="black"/>
<path d="M157.444 73.9772C157.444 73.1159 156.74 72.4141 155.875 72.4141C155.011 72.4141 154.307 73.1159 154.307 73.9772C154.307 74.8385 155.011 75.5403 155.875 75.5403C156.74 75.5722 157.444 74.8385 157.444 73.9772Z" fill="white"/>
<path d="M123.766 59.7177C123.766 58.346 122.645 57.2295 121.268 57.2295H110.608C107.727 57.2295 105.422 59.5582 105.422 62.3974V63.3225L123.766 63.2906V59.7177Z" fill="#422715"/>
<path d="M165.191 62.3652C165.191 59.4941 162.854 57.1973 160.005 57.1973H149.345C147.968 57.1973 146.848 58.3138 146.848 59.6855V63.2903L165.191 63.2584V62.3652Z" fill="#422715"/>
<path d="M92.8401 70.596C95.4333 69.3519 97.3541 66.9275 97.8663 63.9607L101.004 38.2169C101.772 33.8785 105.55 30.6884 109.968 30.6884L124.246 19.9698L131.353 5.45508C128.888 5.45508 126.455 5.93359 124.182 6.8268C123.189 5.93359 121.877 5.45508 120.532 5.45508C119.86 5.45508 119.188 5.51888 118.515 5.55078C115.954 6.8587 113.201 7.62432 110.416 8.70893C108.911 10.1764 107.022 11.4205 106.126 12.1223C104.333 13.494 102.22 14.7381 100.684 16.4289C97.8023 19.4913 95.9135 23.2875 93.0322 26.3818C93.0002 26.4137 93.0002 26.4137 92.9682 26.4137C91.4315 30.4013 90.4711 34.7398 89.8629 39.2059C89.7348 40.0353 89.3506 40.5457 88.8064 40.8328L88.8384 70.9788C89.6388 70.7236 90.5031 70.596 91.3675 70.596H92.8401Z" fill="#422715"/>
<path d="M146.207 21.086L160.485 30.6243C164.903 30.6243 168.713 33.7824 169.481 38.1209L172.651 63.8647C173.099 66.3529 174.539 68.4583 176.524 69.7982H179.085C179.95 69.7982 180.814 69.9258 181.615 70.181L181.583 39.5883C178.477 30.9433 176.172 19.9057 167.528 15.0887C162.342 12.2177 156.868 10.1122 152.418 6.22037C150.625 5.93326 148.8 5.67806 146.976 5.42285C144.318 5.42285 140.637 5.42285 139.004 5.42285L116.819 5.45475C112.048 7.08168 107.791 9.85703 103.341 12.4729C99.8832 16.6518 98.3785 21.1498 102.348 21.1498L146.207 21.086Z" fill="#422715"/>
<path d="M182.287 51.7424C182.287 49.318 182.287 46.8297 181.551 44.4691C179.918 39.2374 174.924 25.6159 170.154 21.8516C165.384 18.0873 160.517 19.7143 154.627 17.1622C148.736 14.6102 141.533 10.5269 135.259 12.409C128.984 10.5269 121.813 14.6102 115.89 17.1622C110 19.7143 105.134 18.0873 100.363 21.8516C95.5934 25.6478 90.5993 39.2374 88.9665 44.4691C88.2302 46.8297 88.2302 49.2861 88.2302 51.7424C88.2302 53.5288 100.972 47.6272 99.8833 43.6716C102.284 44.3415 105.005 43.5121 106.798 42.0765C108.559 40.641 109.519 38.6632 110.128 36.6853C115.698 39.3012 123.894 36.8768 125.975 31.9641C129.144 34.6756 131.961 34.9627 135.163 34.9627H135.323C138.524 34.9627 141.341 34.6756 144.511 31.9641C146.623 36.8449 154.819 39.3012 160.357 36.6853C160.966 38.6632 161.894 40.641 163.687 42.0765C165.448 43.5121 168.201 44.3415 170.602 43.6716C169.545 47.6272 182.287 53.5288 182.287 51.7424Z" fill="#422715"/>
<path d="M135.259 155.483H138.012C139.708 152.739 142.27 148.082 142.27 148.082L142.494 144.828H135.259H128.055L128.28 148.082C128.28 148.082 130.841 152.739 132.537 155.483H135.259Z" fill="#FF5D3E"/>
<path d="M134.298 144.829C128.632 137.779 126.487 131.016 126.487 131.016L116.915 136.375C117.971 144.573 124.694 153.601 124.694 153.601C126.135 149.071 134.298 144.829 134.298 144.829Z" fill="#FEFEFE"/>
<path d="M153.602 136.375L144.03 131.016C144.03 131.016 141.917 137.779 136.251 144.829C136.251 144.829 144.414 149.071 145.823 153.569C145.823 153.569 152.546 144.541 153.602 136.375Z" fill="#FEFEFE"/>
<path d="M137.435 151.049H132.921C126.359 188.628 122.613 233.416 121.749 272.526C121.685 275.78 129.08 280.948 135.322 291.571C141.533 280.948 148.928 275.812 148.864 272.558C147.904 233.416 144.062 188.66 137.435 151.049Z" fill="#FF5D3E"/>
<path d="M185.712 595.073C191.795 568.404 204.632 501.827 205.369 463.26C206.137 423.416 205.241 373.842 204.504 344.749L203.64 321.047H66.9089L66.0446 344.749C65.3082 373.842 64.4119 423.416 65.1802 463.26C65.9485 501.827 78.7541 568.372 84.8367 595.073C97.13 597.752 112.689 596.285 123.541 594.881C123.541 594.881 122.837 519.66 125.462 492.895C128.824 458.698 133.082 421.534 135.226 367.526C137.403 421.534 141.629 458.698 144.991 492.895C147.616 519.628 146.912 594.881 146.912 594.881C157.86 596.285 173.419 597.72 185.712 595.073Z" fill="#292229"/>
<path d="M203.48 307.298L67.101 307.521L67.6452 320.856L203.224 321.047L203.48 307.298Z" fill="#292229"/>
<path d="M283.483 504.763C290.398 504.763 295.968 499.18 295.968 492.322V417.26C295.968 410.369 290.366 404.818 283.483 404.818H155.875C148.96 404.818 143.39 410.401 143.39 417.26V492.322C143.39 499.212 148.992 504.763 155.875 504.763H283.483Z" fill="#1E2A42"/>
<path d="M235.814 439.877C248.459 439.877 258.768 429.605 258.768 417.004V398.917C258.768 386.316 248.459 376.044 235.814 376.044H203.544C190.899 376.044 180.59 386.284 180.59 398.917V417.004C180.59 429.605 190.899 439.877 203.544 439.877H235.814ZM190.194 417.036V398.949C190.194 391.611 196.181 385.646 203.544 385.646H235.814C243.177 385.646 249.164 391.611 249.164 398.949V417.036C249.164 424.373 243.177 430.339 235.814 430.339H203.544C196.181 430.307 190.194 424.341 190.194 417.036Z" fill="#3D5388"/>
<path d="M265.555 487.217C267.54 487.217 269.172 485.622 269.172 483.613V472.735C269.172 470.757 267.54 469.13 265.555 469.13H261.585C259.6 469.13 257.968 470.757 257.968 472.735V483.613C257.968 485.591 259.568 487.217 261.585 487.217H265.555Z" fill="#3D5388"/>
<path d="M177.773 487.217C179.758 487.217 181.39 485.622 181.39 483.613V472.735C181.39 470.757 179.79 469.13 177.773 469.13H173.803C171.818 469.13 170.186 470.757 170.186 472.735V483.613C170.186 485.591 171.818 487.217 173.803 487.217H177.773Z" fill="#3D5388"/>
<path d="M186.865 407.976C190.386 407.976 193.268 405.105 193.268 401.596V395.216H176.716C173.195 395.216 170.314 398.087 170.314 401.596C170.314 405.105 173.195 407.976 176.716 407.976H186.865Z" fill="#1E2A42"/>
<path d="M262.641 407.976C266.163 407.976 269.044 405.105 269.044 401.596C269.044 398.087 266.163 395.216 262.641 395.216H246.09V401.596C246.09 405.105 248.972 407.976 252.493 407.976H262.641Z" fill="#1E2A42"/>
<path d="M283.483 478.158C290.398 478.158 295.968 472.575 295.968 465.717V412.985C295.968 406.095 290.366 400.544 283.483 400.544H155.875C148.96 400.544 143.39 406.127 143.39 412.985V465.717C143.39 472.607 148.992 478.158 155.875 478.158H283.483Z" fill="#3D5388"/>
<path d="M233.829 206.077L207.066 219.635C224.321 253.641 230.98 306.117 219.519 363.06C219.295 363.857 219.135 364.272 219.135 364.272L240.168 369.057C239.72 367.494 239.432 366.346 239.271 365.101C245.194 347.141 265.555 273.355 233.829 206.077Z" fill="#8A4F16"/>
<path d="M216.99 391.77L220.063 379.042C220.255 378.244 220.095 377.351 219.647 376.554C218.623 374.735 216.35 373.747 214.461 374.289L213.917 374.448C212.86 374.767 212.092 375.533 211.836 376.554L208.538 389.729C208.058 391.675 208.986 393.716 210.779 394.641C213.276 395.885 216.318 394.514 216.99 391.77Z" fill="#8A4F16"/>
<path d="M220.159 360.125L212.316 371.577L210.267 383.699L239.752 391.834L243.081 385.039C244.874 374.097 243.209 366.696 238.631 362.581L225.089 357.445L220.768 358.083C220.063 358.211 220.864 359.997 220.159 360.125Z" fill="#8A4F16"/>
<path d="M225.442 393.907L227.907 379.01C228.067 377.893 227.586 376.745 226.626 375.884C224.897 374.32 222.08 374.193 220.479 375.596C219.359 376.553 218.687 377.83 218.495 379.233L216.51 392.504C216.158 394.864 217.726 397.097 220.063 397.576C222.592 398.086 225.025 396.428 225.442 393.907Z" fill="#8A4F16"/>
<path d="M241.577 393.621L243.145 384.72C243.337 383.604 242.953 382.455 242.089 381.594C240.872 380.382 238.663 380.222 237.095 381.243C236.422 381.69 235.942 382.296 235.75 382.998L233.989 389.282L233.477 392.185C233.029 394.609 234.822 396.843 237.255 397.002C239.336 397.162 241.224 395.694 241.577 393.621Z" fill="#8A4F16"/>
<path d="M233.861 395.056L234.758 391.929L235.974 381.689C236.198 380.445 235.782 379.169 234.822 378.117C233.477 376.649 231.012 376.298 229.283 377.319C228.547 377.766 228.003 378.404 227.779 379.137L225.346 390.749L225.249 391.738L225.153 393.588C225.025 395.821 226.562 397.799 228.771 398.214C231.012 398.692 233.253 397.289 233.861 395.056Z" fill="#8A4F16"/>
<path d="M202.071 321.047C203.64 321.047 204.889 319.771 204.889 318.24V311.477C204.889 309.914 203.608 308.67 202.071 308.67H68.4456C66.877 308.67 65.6284 309.946 65.6284 311.477V318.24C65.6284 319.803 66.909 321.047 68.4456 321.047H202.071Z" fill="#324669"/>
<path d="M144.543 323.727C146.111 323.727 147.36 322.451 147.36 320.92V308.797C147.36 307.234 146.079 305.99 144.543 305.99H126.007C124.438 305.99 123.189 307.266 123.189 308.797V320.92C123.189 322.483 124.47 323.727 126.007 323.727H144.543Z" fill="#324669"/>
<path d="M143.966 309.34H126.551V320.346H143.966V309.34Z" fill="#292229"/>
<path d="M173.803 307.521H169.545V323.886H173.803V307.521Z" fill="#292229"/>
<path d="M101.004 307.521H96.7458V323.886H101.004V307.521Z" fill="#292229"/>
<path d="M147.04 316.549C147.968 316.549 148.736 315.784 148.736 314.859C148.736 313.934 147.968 313.168 147.04 313.168H134.874C133.946 313.168 133.178 313.934 133.178 314.859C133.178 315.784 133.946 316.549 134.874 316.549H147.04Z" fill="#324669"/>
<path d="M151.041 101.667C151.041 101.667 145.503 102.018 135.322 102.05C125.11 102.05 119.572 101.667 119.572 101.667C127.863 113.183 142.75 113.183 151.041 101.667Z" fill="#B55151"/>
<path d="M135.322 105.304C140.829 105.304 145.247 105.08 148.224 104.889C149.217 103.932 150.177 102.879 151.041 101.667C151.041 101.667 145.503 102.018 135.29 102.05C125.078 102.05 119.54 101.667 119.54 101.667C120.404 102.879 121.364 103.932 122.357 104.889C125.366 105.08 129.816 105.304 135.322 105.304Z" fill="white"/>
<path d="M135.322 106.707C131.769 106.707 128.728 107.154 126.167 107.728C131.929 111.109 138.684 111.109 144.446 107.728C141.853 107.186 138.844 106.707 135.322 106.707Z" fill="#FFA1A3"/>
<path d="M135.291 367.526C135.355 369.281 135.419 371.003 135.515 372.726C135.643 372.694 135.739 372.694 135.739 372.694C135.739 372.694 177.101 382.487 205.081 368.387C204.921 359.647 204.729 351.64 204.568 344.749L203.704 321.047H66.9089L66.0446 344.749C65.8845 351.48 65.6924 359.359 65.5323 367.909C91.4636 381.562 129.688 373.97 135.066 372.821C135.13 371.099 135.226 369.312 135.291 367.526Z" fill="#C4C4C4"/>
<path d="M211.9 363.667C211.9 363.667 229.187 374.385 246.154 371.004C246.154 371.004 263.986 308.351 256.335 255.875C248.684 203.398 228.291 179.696 215.549 161.896C202.808 144.127 156.067 136.503 156.067 136.503C156.067 136.503 154.371 212.681 135.675 252.493V364.241C135.675 364.241 185.808 376.108 212.988 354.926C212.988 354.926 204.344 234.406 197.557 220.88C197.589 220.848 226.338 277.312 211.9 363.667Z" fill="#292229"/>
<path d="M175.66 140.171L156.132 136.503C156.132 136.503 154.435 212.681 135.739 252.493V265.349C157.38 246.368 171.434 219.891 171.434 219.891L161.67 204.643L183.76 185.183L175.66 140.171Z" fill="#332A33"/>
<path d="M196.021 296.516H157.508V306.118H196.021V296.516Z" fill="#332A33"/>
<path d="M135.707 364.241V252.493C117.011 212.713 115.314 136.503 115.314 136.503C115.314 136.503 71.0387 145.435 54.1354 159.344C44.3712 167.383 33.7746 177.24 35.8555 185.151C40.6255 203.271 73.7919 220.816 73.7919 220.816C67.005 234.374 58.3612 354.862 58.3612 354.862C85.605 376.076 135.707 364.241 135.707 364.241Z" fill="#292229"/>
<path d="M135.707 265.349V252.493C117.011 212.713 115.314 136.503 115.314 136.503L95.7854 140.171L87.7179 185.183L109.807 204.643L100.043 219.891C100.043 219.891 114.097 246.368 135.707 265.349Z" fill="#332A33"/>
<path d="M113.905 296.516H75.3926V306.118H113.905V296.516Z" fill="#332A33"/>
<path d="M83.5561 109.1C83.428 106.261 82.9798 82.7186 80.5468 80.8046L76.1929 72.3828C76.1929 72.3828 67.7413 77.2317 66.2046 79.05C62.523 83.4204 61.8187 86.3553 61.4025 94.1709C60.9543 102.369 59.0655 104.283 57.3688 106.867C57.913 107.346 71.3588 118.256 71.5189 118.288C77.1213 119.021 83.7802 113.854 83.5561 109.1Z" fill="#8A4F16"/>
<path d="M83.3641 121.19C85.2529 121.19 86.7896 119.627 86.7896 117.745L86.4374 48.7757C86.4374 46.8935 84.8687 45.3623 82.9799 45.3623C81.0911 45.3623 79.5544 46.9254 79.5544 48.8076L79.9066 117.808C79.9066 119.691 81.4753 121.19 83.3641 121.19Z" fill="#F1F1F1"/>
<path d="M83.1079 69.3517C83.7162 69.3517 84.2284 68.8413 84.2284 68.2352L84.1964 59.1116C84.1964 58.5055 83.6842 57.9951 83.0759 57.9951C82.4677 57.9951 81.9554 58.5055 81.9554 59.1116L81.9875 68.2352C81.9875 68.8413 82.4677 69.3517 83.1079 69.3517Z" fill="#FEFEFE"/>
<path d="M83.14 79.2092C83.7483 79.2092 84.2605 78.6988 84.2605 78.0927L84.2285 72.9886C84.2285 72.3825 83.7163 71.8721 83.108 71.8721C82.4998 71.8721 81.9875 72.3825 81.9875 72.9886L82.0196 78.0927C82.0196 78.7307 82.5318 79.2092 83.14 79.2092Z" fill="#FEFEFE"/>
<path d="M74.7202 82.4625C75.6486 82.622 76.513 82.4306 77.2173 82.0159L88.134 74.7426C90.4711 73.1795 90.7272 69.8618 88.6783 67.9478C87.2056 66.5761 84.9647 66.4166 83.2679 67.5331L71.9991 75.1573C71.1347 75.7315 70.6545 76.7204 70.7505 77.8369L70.7825 78.3793C70.9106 80.3252 72.6393 82.1116 74.7202 82.4625Z" fill="#8A4F16"/>
<path d="M76.353 92.8624L89.5427 85.3977C91.7836 84.1217 92.4879 81.2825 91.1434 79.1133C89.8628 77.0716 87.2377 76.4017 85.1568 77.5502L73.3437 83.9941C72.0951 84.6321 71.1347 85.7167 70.5905 87.0884C69.8221 89.0663 70.9106 91.6502 72.9915 92.7348C74.112 93.3409 75.3605 93.3728 76.353 92.8624Z" fill="#8A4F16"/>
<path d="M76.3849 103.485L89.7347 96.3389C91.9757 95.1267 92.776 92.2875 91.4955 90.0864C90.2789 88.0448 87.6538 87.2791 85.5409 88.3957L73.5997 94.5844C72.3192 95.1905 71.3588 96.2432 70.7825 97.6149C69.9822 99.5928 71.0066 102.177 73.0555 103.325C74.144 103.931 75.3925 103.995 76.3849 103.485Z" fill="#8A4F16"/>
<path d="M81.2191 110.216L83.9403 109.035L89.7028 105.909C90.343 105.558 90.8232 104.984 91.1114 104.218C91.7516 102.464 91.1114 100.358 89.6387 99.4652C88.6143 98.8272 87.4298 98.6996 86.3413 99.1462L77.9857 102.655C76.0649 103.453 75.0404 105.59 75.6487 107.6C76.385 109.961 78.9781 111.173 81.2191 110.216Z" fill="#8A4F16"/>
<path d="M58.6173 101.38C45.1075 113.661 -3.61757 160.204 0.224091 194.912C1.60069 207.29 12.5494 219.731 37.7443 220.305C66.3327 220.943 84.1964 216.126 88.4222 210.416C93.3524 203.781 72.5434 197.975 65.8525 194.625C59.1936 191.276 46.5801 181.578 46.0679 174.145C45.5557 166.712 75.5847 119.531 75.5847 119.531C70.5265 100.391 58.6173 101.38 58.6173 101.38Z" fill="#292229"/>
</g>
<defs>
<clipPath id="clip0_46_21392">
<rect width="296" height="639" fill="white"/>
</clipPath>
</defs>
</svg>
