<svg width="207" height="80" viewBox="0 0 207 80" fill="none" xmlns="http://www.w3.org/2000/svg">
<g clip-path="url(#clip0_307_3146)">
<path d="M199.897 79.8002H7.10331C3.17922 79.8002 0 76.6299 0 72.7229V51.0768C0 47.1671 3.17922 43.9995 7.10331 43.9995H199.897C203.821 43.9995 207 47.1671 207 51.0768V72.7229C207 76.6299 203.821 79.8002 199.897 79.8002Z" fill="white"/>
<path d="M79.6406 70.8618L77.8567 66.4466H68.3218L66.5378 70.8618H64.7539L72.1298 52.9077H74.0487L81.4246 70.8618H79.6406ZM73.1041 54.5507L68.8345 65.0483H77.3439L73.1041 54.5507Z" fill="url(#paint0_linear_307_3146)"/>
<path d="M14.6154 70.8618V54.3087H8.72656V52.9077H22.0723V54.3087H16.1834V70.8618H14.6154Z" fill="url(#paint1_linear_307_3146)"/>
<path d="M48.4695 70.8618L43.4173 63.4323H39.4473V70.8618H37.9062V52.9077H44.6317C47.7381 52.9077 50.1157 54.8733 50.1157 58.1565C50.1157 61.4129 47.819 63.2172 45.1175 63.3247L50.3316 70.8618H48.4695ZM48.4964 58.1565C48.4964 55.8951 46.9014 54.3087 44.4995 54.3087H39.4473V62.034H44.4995C46.9014 62.034 48.4964 60.418 48.4964 58.1565Z" fill="url(#paint2_linear_307_3146)"/>
<path d="M100.712 70.8618L93.3359 52.9077H95.1199L101.683 69.1382L108.223 52.9077H110.007L102.631 70.8618H100.712Z" fill="url(#paint3_linear_307_3146)"/>
<path d="M125.297 70.8618V52.9077H136.724V54.3087H126.835V60.9557H136.535V62.3567H126.835V69.4636H136.724V70.8645H125.297V70.8618Z" fill="url(#paint4_linear_307_3146)"/>
<path d="M152.77 70.8618V52.9077H154.335V69.4609H163.06V70.8618H152.77Z" fill="url(#paint5_linear_307_3146)"/>
<path d="M178.438 68.3317L179.436 67.1754C180.597 68.493 182.488 69.7864 185.082 69.7864C188.755 69.7864 189.81 67.7401 189.81 66.2074C189.81 60.9317 179.004 63.6771 179.004 57.4065C179.004 54.4728 181.652 52.6147 184.92 52.6147C187.595 52.6147 189.648 53.5559 191.025 55.1451L189.999 56.2771C188.704 54.7148 186.866 54.0157 184.839 54.0157C182.434 54.0157 180.624 55.3871 180.624 57.3258C180.624 61.9293 191.43 59.399 191.43 66.0998C191.43 68.415 189.889 71.1873 185.028 71.1873C182.057 71.1846 179.817 69.9746 178.438 68.3317Z" fill="url(#paint6_linear_307_3146)"/>
<path d="M199.897 43.9993H7.10331C3.17922 43.9993 0 40.8317 0 36.922V7.07732C0 3.16758 3.17922 0 7.10331 0H199.897C203.821 0 207 3.16758 207 7.07732V36.922C207 40.8317 203.821 43.9993 199.897 43.9993Z" fill="white"/>
<path d="M103.765 29.345C103.344 29.7644 102.836 29.9715 102.234 29.9715C101.635 29.9715 101.125 29.7618 100.707 29.345C100.286 28.9282 100.078 28.42 100.078 27.823V12.5928C100.078 11.9959 100.289 11.4876 100.707 11.0709C101.125 10.6541 101.635 10.4443 102.234 10.4443C102.834 10.4443 103.344 10.6541 103.765 11.0709C104.183 11.4903 104.394 11.9959 104.394 12.5928V27.823C104.394 28.42 104.186 28.9282 103.765 29.345Z" fill="url(#paint7_linear_307_3146)"/>
<path d="M41.0438 10.4414C41.8831 10.4414 42.6685 10.5974 43.4053 10.912C44.1393 11.2266 44.7843 11.6514 45.3376 12.1892C45.8909 12.727 46.3281 13.3535 46.6411 14.0715C46.9569 14.7894 47.1134 15.5665 47.1134 16.4001C47.1134 17.2364 46.9569 18.0135 46.6411 18.7288C46.3254 19.4467 45.8909 20.0732 45.3376 20.611C44.7817 21.1488 44.1393 21.5737 43.4053 21.8883C42.6712 22.2029 41.8831 22.3588 41.0438 22.3588H16.2685V27.8255C16.2685 28.4224 16.0499 28.9306 15.6154 29.3474C15.1809 29.7669 14.6789 29.9739 14.1095 29.9739C13.5103 29.9739 13.0003 29.7642 12.582 29.3474C12.1609 28.9306 11.9531 28.4224 11.9531 27.8255V12.5926C11.9531 11.9956 12.1636 11.4874 12.582 11.0706C13.0003 10.6538 13.5103 10.4441 14.1095 10.4441H41.0438V10.4414ZM16.2712 14.741V18.0565H41.2246C41.6753 18.0565 42.072 17.9006 42.4175 17.5859C42.7629 17.2713 42.9357 16.8761 42.9357 16.3974C42.9357 15.9484 42.7629 15.5612 42.4175 15.2331C42.072 14.9051 41.6753 14.741 41.2246 14.741H16.2712Z" fill="url(#paint8_linear_307_3146)"/>
<path d="M59.7913 29.5036C59.041 29.189 58.3906 28.7642 57.8346 28.2264C57.2787 27.6886 56.8388 27.0621 56.5095 26.3441C56.1803 25.6262 56.0156 24.8517 56.0156 24.0155V12.5928C56.0156 11.9959 56.2261 11.4876 56.6445 11.0709C57.0628 10.6541 57.5728 10.4443 58.172 10.4443C58.7414 10.4443 59.2434 10.6541 59.6779 11.0709C60.1124 11.4903 60.331 11.9959 60.331 12.5928V24.0155C60.331 24.4645 60.5038 24.8517 60.8492 25.1798C61.1947 25.5078 61.5914 25.6719 62.0421 25.6719H89.0196C89.6187 25.6719 90.1288 25.8816 90.5471 26.2984C90.9654 26.7179 91.1759 27.2234 91.1759 27.8203C91.1759 28.4173 90.9654 28.9255 90.5471 29.3423C90.1261 29.7618 89.6187 29.9688 89.0196 29.9688H62.177C61.335 29.9742 60.5416 29.8155 59.7913 29.5036Z" fill="url(#paint9_linear_307_3146)"/>
<path d="M116.897 21.8883C116.177 21.5737 115.548 21.1488 115.008 20.611C114.468 20.0732 114.042 19.4467 113.726 18.7288C113.41 18.0108 113.254 17.2364 113.254 16.4001C113.254 15.5639 113.41 14.7868 113.726 14.0715C114.042 13.3562 114.468 12.727 115.008 12.1892C115.548 11.6514 116.177 11.2266 116.897 10.912C117.618 10.5974 118.395 10.4414 119.235 10.4414H146.528C147.127 10.4414 147.637 10.6511 148.055 11.0679C148.474 11.4874 148.684 11.9929 148.684 12.5899C148.684 13.1868 148.474 13.695 148.055 14.1118C147.634 14.5313 147.127 14.7383 146.528 14.7383H119.145C118.695 14.7383 118.298 14.8943 117.953 15.2089C117.607 15.5235 117.434 15.9188 117.434 16.3974C117.434 16.8465 117.607 17.2337 117.953 17.5617C118.298 17.8898 118.695 18.0538 119.145 18.0538H144.01C144.849 18.0538 145.634 18.2098 146.371 18.5244C147.105 18.839 147.742 19.2639 148.282 19.8016C148.822 20.3394 149.248 20.974 149.564 21.7054C149.88 22.4368 150.036 23.222 150.036 24.0583C150.036 24.8945 149.88 25.6716 149.564 26.3869C149.248 27.1021 148.822 27.7314 148.282 28.2692C147.742 28.8069 147.105 29.2264 146.371 29.5249C145.637 29.8234 144.849 29.9739 144.01 29.9739H116.762C116.163 29.9739 115.653 29.7642 115.232 29.3474C114.811 28.9306 114.603 28.4224 114.603 27.8255C114.603 27.2285 114.814 26.7203 115.232 26.3035C115.65 25.8867 116.161 25.677 116.762 25.677H144.191C144.641 25.677 145.03 25.521 145.359 25.2064C145.688 24.8918 145.853 24.5127 145.853 24.0636C145.853 23.585 145.688 23.1843 145.359 22.8536C145.03 22.5256 144.639 22.3615 144.191 22.3615H119.237C118.395 22.3588 117.615 22.2002 116.897 21.8883Z" fill="url(#paint10_linear_307_3146)"/>
<path d="M192.031 10.4414C192.63 10.4414 193.14 10.6511 193.561 11.0679C193.979 11.4874 194.19 11.9929 194.19 12.5899C194.19 13.1572 193.995 13.6439 193.604 14.0446C193.215 14.4479 192.748 14.6792 192.211 14.7383H183.173C182.274 14.7975 181.532 15.0153 180.946 15.3891C180.361 15.7628 179.905 16.2173 179.575 16.7551C179.246 17.2929 179.019 17.8737 178.901 18.5029C178.779 19.1294 178.72 19.6968 178.72 20.205V27.8201C178.72 28.417 178.509 28.9253 178.091 29.342C177.67 29.7615 177.163 29.9686 176.561 29.9686C175.962 29.9686 175.452 29.7588 175.033 29.342C174.612 28.9253 174.404 28.417 174.404 27.8201V20.2077C174.404 19.2827 174.523 18.3496 174.763 17.4085C175.004 16.4673 175.363 15.58 175.843 14.7437H161.097C160.497 14.7437 159.987 14.534 159.566 14.1172C159.145 13.7004 158.938 13.1922 158.938 12.5953C158.938 11.9983 159.148 11.4901 159.566 11.0733C159.985 10.6565 160.495 10.4468 161.097 10.4468H192.031V10.4414Z" fill="url(#paint11_linear_307_3146)"/>
<path d="M11.4319 44.5693H6.76562V43.4292H11.4319V44.5693ZM18.4812 43.4292H13.815V44.5693H18.4812V43.4292ZM25.5764 43.4292H20.9102V44.5693H25.5764V43.4292ZM32.5313 43.4292H27.8651V44.5693H32.5313V43.4292ZM39.4376 43.4292H34.7713V44.5693H39.4376V43.4292ZM46.4384 43.4292H41.7721V44.5693H46.4384V43.4292ZM53.3906 43.4292H48.7243V44.5693H53.3906V43.4292ZM60.4885 43.4292H55.8222V44.5693H60.4885V43.4292ZM67.4406 43.4292H62.7744V44.5693H67.4406V43.4292ZM74.3469 43.4292H69.6807V44.5693H74.3469V43.4292ZM81.4907 43.4292H76.8245V44.5693H81.4907V43.4292ZM88.397 43.4292H83.7308V44.5693H88.397V43.4292ZM102.366 43.4292H97.6999V44.5693H102.366V43.4292ZM109.661 43.4292H104.995V44.5693H109.661V43.4292ZM116.163 43.4292H111.496V44.5693H116.163V43.4292ZM123.404 43.4292H118.737V44.5693H123.404V43.4292ZM130.261 43.4292H125.595V44.5693H130.261V43.4292ZM137.373 43.4292H132.706V44.5693H137.373V43.4292ZM144.23 43.4292H139.564V44.5693H144.23V43.4292ZM151.328 43.4292H146.662V44.5693H151.328V43.4292ZM165.297 43.4292H160.631V44.5693H165.297V43.4292ZM172.298 43.4292H167.632V44.5693H172.298V43.4292ZM186.143 43.4292H181.477V44.5693H186.143V43.4292ZM193.128 43.4292H188.461V44.5693H193.128V43.4292ZM200.239 43.4292H195.573V44.5693H200.239V43.4292ZM179.204 43.4292H174.538V44.5693H179.204V43.4292ZM158.44 43.4292H153.773V44.5693H158.44V43.4292ZM95.3978 43.4292H90.7315V44.5693H95.3978V43.4292Z" fill="url(#paint12_linear_307_3146)"/>
</g>
<defs>
<linearGradient id="paint0_linear_307_3146" x1="81.4246" y1="61.8855" x2="64.7567" y2="61.8855" gradientUnits="userSpaceOnUse">
<stop stop-color="#255AA8"/>
<stop offset="1" stop-color="#0DA2C4"/>
</linearGradient>
<linearGradient id="paint1_linear_307_3146" x1="22.0727" y1="61.8854" x2="8.72751" y2="61.8854" gradientUnits="userSpaceOnUse">
<stop stop-color="#255AA8"/>
<stop offset="1" stop-color="#0DA2C4"/>
</linearGradient>
<linearGradient id="paint2_linear_307_3146" x1="50.3332" y1="61.8854" x2="37.9065" y2="61.8854" gradientUnits="userSpaceOnUse">
<stop stop-color="#255AA8"/>
<stop offset="1" stop-color="#0DA2C4"/>
</linearGradient>
<linearGradient id="paint3_linear_307_3146" x1="110.006" y1="61.8854" x2="93.3377" y2="61.8854" gradientUnits="userSpaceOnUse">
<stop stop-color="#255AA8"/>
<stop offset="1" stop-color="#0DA2C4"/>
</linearGradient>
<linearGradient id="paint4_linear_307_3146" x1="136.725" y1="61.8854" x2="125.298" y2="61.8854" gradientUnits="userSpaceOnUse">
<stop stop-color="#255AA8"/>
<stop offset="1" stop-color="#0DA2C4"/>
</linearGradient>
<linearGradient id="paint5_linear_307_3146" x1="163.063" y1="61.8854" x2="152.771" y2="61.8854" gradientUnits="userSpaceOnUse">
<stop stop-color="#255AA8"/>
<stop offset="1" stop-color="#0DA2C4"/>
</linearGradient>
<linearGradient id="paint6_linear_307_3146" x1="191.432" y1="61.8992" x2="178.438" y2="61.8992" gradientUnits="userSpaceOnUse">
<stop stop-color="#255AA8"/>
<stop offset="1" stop-color="#0DA2C4"/>
</linearGradient>
<linearGradient id="paint7_linear_307_3146" x1="104.395" y1="20.2075" x2="100.078" y2="20.2075" gradientUnits="userSpaceOnUse">
<stop stop-color="#255AA8"/>
<stop offset="1" stop-color="#0DA2C4"/>
</linearGradient>
<linearGradient id="paint8_linear_307_3146" x1="47.1149" y1="20.2073" x2="11.9543" y2="20.2073" gradientUnits="userSpaceOnUse">
<stop stop-color="#255AA8"/>
<stop offset="1" stop-color="#0DA2C4"/>
</linearGradient>
<linearGradient id="paint9_linear_307_3146" x1="91.1763" y1="20.2075" x2="56.0157" y2="20.2075" gradientUnits="userSpaceOnUse">
<stop stop-color="#255AA8"/>
<stop offset="1" stop-color="#0DA2C4"/>
</linearGradient>
<linearGradient id="paint10_linear_307_3146" x1="150.034" y1="20.2073" x2="113.255" y2="20.2073" gradientUnits="userSpaceOnUse">
<stop stop-color="#255AA8"/>
<stop offset="1" stop-color="#0DA2C4"/>
</linearGradient>
<linearGradient id="paint11_linear_307_3146" x1="194.188" y1="20.2073" x2="158.937" y2="20.2073" gradientUnits="userSpaceOnUse">
<stop stop-color="#255AA8"/>
<stop offset="1" stop-color="#0DA2C4"/>
</linearGradient>
<linearGradient id="paint12_linear_307_3146" x1="6.7653" y1="43.999" x2="200.239" y2="43.999" gradientUnits="userSpaceOnUse">
<stop stop-color="#255AA8"/>
<stop offset="1" stop-color="#0DA2C4"/>
</linearGradient>
<clipPath id="clip0_307_3146">
<rect width="207" height="79.8" fill="white"/>
</clipPath>
</defs>
</svg>
