<svg width="36" height="37" viewBox="0 0 36 37" fill="none" xmlns="http://www.w3.org/2000/svg">
<rect y="0.5" width="36" height="36" rx="18" fill="#DBEAFE"/>
<path d="M22.8333 24.5L21.3333 17.6667L24.25 14.75C25.5 13.5 25.9167 11.8333 25.5 11C24.6667 10.5833 23 11 21.75 12.25L18.8333 15.1667L12 13.6667C11.5833 13.5833 11.25 13.75 11.0833 14.0833L10.8333 14.5C10.6667 14.9167 10.75 15.3333 11.0833 15.5833L15.5 18.5L13.8333 21H11.3333L10.5 21.8333L13 23.5L14.6667 26L15.5 25.1667V22.6667L18 21L20.9167 25.4167C21.1667 25.75 21.5833 25.8333 22 25.6667L22.4167 25.5C22.75 25.25 22.9167 24.9167 22.8333 24.5Z" stroke="#2563EB" stroke-width="1.66667" stroke-linecap="round" stroke-linejoin="round"/>
</svg>
