<svg width="36" height="37" viewBox="0 0 36 37" fill="none" xmlns="http://www.w3.org/2000/svg">
<rect y="0.5" width="36" height="36" rx="18" fill="#DBEAFE"/>
<path d="M19.755 13.1261C19.9863 13.2417 20.2414 13.3019 20.5 13.3019C20.7586 13.3019 21.0137 13.2417 21.245 13.1261L24.2942 11.6011C24.4213 11.5376 24.5626 11.5076 24.7046 11.5141C24.8466 11.5205 24.9845 11.5632 25.1054 11.638C25.2262 11.7129 25.3259 11.8174 25.395 11.9416C25.4641 12.0658 25.5002 12.2056 25.5 12.3478V22.9844C25.4999 23.1391 25.4568 23.2908 25.3754 23.4224C25.294 23.5539 25.1776 23.6603 25.0392 23.7294L21.245 25.6269C21.0137 25.7425 20.7586 25.8027 20.5 25.8027C20.2414 25.8027 19.9863 25.7425 19.755 25.6269L16.245 23.8719C16.0137 23.7563 15.7586 23.6961 15.5 23.6961C15.2414 23.6961 14.9863 23.7563 14.755 23.8719L11.7058 25.3969C11.5786 25.4605 11.4373 25.4904 11.2952 25.4839C11.1532 25.4774 11.0151 25.4347 10.8943 25.3598C10.7734 25.2848 10.6737 25.1802 10.6047 25.0559C10.5357 24.9316 10.4997 24.7916 10.5 24.6494V14.0136C10.5001 13.8589 10.5432 13.7072 10.6246 13.5757C10.706 13.4441 10.8224 13.3377 10.9608 13.2686L14.755 11.3711C14.9863 11.2555 15.2414 11.1953 15.5 11.1953C15.7586 11.1953 16.0137 11.2555 16.245 11.3711L19.755 13.1261Z" stroke="#2563EB" stroke-width="1.66667" stroke-linecap="round" stroke-linejoin="round"/>
<path d="M20.5 13.3047V25.8047" stroke="#2563EB" stroke-width="1.66667" stroke-linecap="round" stroke-linejoin="round"/>
<path d="M15.5 11.1953V23.6953" stroke="#2563EB" stroke-width="1.66667" stroke-linecap="round" stroke-linejoin="round"/>
</svg>
