<svg width="36" height="37" viewBox="0 0 36 37" fill="none" xmlns="http://www.w3.org/2000/svg">
<rect y="0.5" width="36" height="36" rx="18" fill="#DBEAFE"/>
<path d="M14.668 13.5V18.5" stroke="#2563EB" stroke-width="1.66667" stroke-linecap="round" stroke-linejoin="round"/>
<path d="M20.5 13.5V18.5" stroke="#2563EB" stroke-width="1.66667" stroke-linecap="round" stroke-linejoin="round"/>
<path d="M9.66797 18.5H26.0013" stroke="#2563EB" stroke-width="1.66667" stroke-linecap="round" stroke-linejoin="round"/>
<path d="M23.0013 23.5H25.5013C25.5013 23.5 25.918 22.0833 26.168 21.1667C26.2513 20.8333 26.3346 20.5 26.3346 20.1667C26.3346 19.8333 26.2513 19.5 26.168 19.1667L25.0013 15C24.7513 14.1667 23.918 13.5 23.0013 13.5H11.3346C10.8926 13.5 10.4687 13.6756 10.1561 13.9882C9.84356 14.3007 9.66797 14.7246 9.66797 15.1667V23.5H12.168" stroke="#2563EB" stroke-width="1.66667" stroke-linecap="round" stroke-linejoin="round"/>
<path d="M13.8346 25.1654C14.7551 25.1654 15.5013 24.4192 15.5013 23.4987C15.5013 22.5782 14.7551 21.832 13.8346 21.832C12.9142 21.832 12.168 22.5782 12.168 23.4987C12.168 24.4192 12.9142 25.1654 13.8346 25.1654Z" stroke="#2563EB" stroke-width="1.66667" stroke-linecap="round" stroke-linejoin="round"/>
<path d="M15.5 23.5H19.6667" stroke="#2563EB" stroke-width="1.66667" stroke-linecap="round" stroke-linejoin="round"/>
<path d="M21.3346 25.1654C22.2551 25.1654 23.0013 24.4192 23.0013 23.4987C23.0013 22.5782 22.2551 21.832 21.3346 21.832C20.4142 21.832 19.668 22.5782 19.668 23.4987C19.668 24.4192 20.4142 25.1654 21.3346 25.1654Z" stroke="#2563EB" stroke-width="1.66667" stroke-linecap="round" stroke-linejoin="round"/>
</svg>
