<svg width="56" height="56" viewBox="0 0 56 56" fill="none" xmlns="http://www.w3.org/2000/svg">
<circle cx="28" cy="28" r="28" fill="#1BB2F1"/>
<path fill-rule="evenodd" clip-rule="evenodd" d="M25.2868 15.9737C24.8387 15.9737 24.4754 16.3369 24.4754 16.7851V18.3736C24.4754 18.7806 24.1455 19.1105 23.7386 19.1105C23.3316 19.1105 23.0017 18.7806 23.0017 18.3736V16.7851C23.0017 15.5231 24.0248 14.5 25.2868 14.5H30.7142C31.9762 14.5 32.9993 15.5231 32.9993 16.7851V18.3736C32.9993 18.7806 32.6694 19.1105 32.2624 19.1105C31.8555 19.1105 31.5256 18.7806 31.5256 18.3736V16.7851C31.5256 16.3369 31.1623 15.9737 30.7142 15.9737H25.2868Z" fill="white"/>
<path fill-rule="evenodd" clip-rule="evenodd" d="M22.2073 39.3898C22.6142 39.3898 22.9441 39.7197 22.9441 40.1266V41.7632C22.9441 42.1701 22.6142 42.5 22.2073 42.5C21.8004 42.5 21.4705 42.1701 21.4705 41.7632V40.1266C21.4705 39.7197 21.8004 39.3898 22.2073 39.3898Z" fill="white"/>
<path fill-rule="evenodd" clip-rule="evenodd" d="M33.7998 39.3898C34.2067 39.3898 34.5366 39.7197 34.5366 40.1266V41.7632C34.5366 42.1701 34.2067 42.5 33.7998 42.5C33.3928 42.5 33.0629 42.1701 33.0629 41.7632V40.1266C33.0629 39.7197 33.3928 39.3898 33.7998 39.3898Z" fill="white"/>
<path fill-rule="evenodd" clip-rule="evenodd" d="M18.7734 20.4875C18.7734 18.9508 20.0192 17.705 21.556 17.705H34.4441C35.9808 17.705 37.2266 18.9508 37.2266 20.4875V37.8081C37.2266 39.3448 35.9808 40.5906 34.4441 40.5906H21.5559C20.0192 40.5906 18.7734 39.3448 18.7734 37.8081V20.4875ZM21.556 19.1786C20.8331 19.1786 20.2471 19.7647 20.2471 20.4875V37.8081C20.2471 38.5309 20.8331 39.1169 21.5559 39.1169H34.4441C35.1669 39.1169 35.7529 38.5309 35.7529 37.8081V20.4875C35.7529 19.7647 35.1669 19.1786 34.4441 19.1786H21.556Z" fill="white"/>
<path fill-rule="evenodd" clip-rule="evenodd" d="M24.1381 26.297C23.0547 26.297 22.1765 27.1753 22.1765 28.2587V38.6289C22.1765 39.7123 23.0547 40.5906 24.1381 40.5906H31.8546C32.938 40.5906 33.8163 39.7123 33.8163 38.6289V28.2587C33.8163 27.1753 32.938 26.297 31.8546 26.297H24.1381ZM25.03 29.2974C24.6231 29.2974 24.2932 29.6273 24.2932 30.0343C24.2932 30.4412 24.6231 30.7711 25.03 30.7711H29.2712V31.3981C29.2712 31.805 29.601 32.1349 30.008 32.1349C30.4149 32.1349 30.7448 31.805 30.7448 31.3981V30.7711H30.9627C31.3696 30.7711 31.6995 30.4412 31.6995 30.0343C31.6995 29.6273 31.3696 29.2974 30.9627 29.2974H25.03Z" fill="white"/>
<path fill-rule="evenodd" clip-rule="evenodd" d="M22.9445 22.6697C22.9445 22.2628 23.2744 21.9329 23.6814 21.9329H32.3075C32.7145 21.9329 33.0444 22.2628 33.0444 22.6697C33.0444 23.0767 32.7145 23.4065 32.3075 23.4065H31.6124V23.9653C31.6124 24.3723 31.2825 24.7022 30.8755 24.7022C30.4686 24.7022 30.1387 24.3723 30.1387 23.9653V23.4065H23.6814C23.2744 23.4065 22.9445 23.0767 22.9445 22.6697Z" fill="white"/>
</svg>
