<svg width="56" height="56" viewBox="0 0 56 56" fill="none" xmlns="http://www.w3.org/2000/svg">
<circle cx="28" cy="28" r="28" fill="#165FE5"/>
<path fill-rule="evenodd" clip-rule="evenodd" d="M28.3189 24.058C28.3189 24.4752 27.9807 24.8134 27.5635 24.8134H17.843C17.4258 24.8134 17.0876 24.4752 17.0876 24.058C17.0876 23.6408 17.4258 23.3026 17.843 23.3026H27.5635C27.9807 23.3026 28.3189 23.6408 28.3189 24.058Z" fill="white"/>
<path fill-rule="evenodd" clip-rule="evenodd" d="M28.3189 20.5262C28.3189 20.9434 27.9807 21.2816 27.5635 21.2816H17.843C17.4258 21.2816 17.0876 20.9434 17.0876 20.5262C17.0876 20.109 17.4258 19.7708 17.843 19.7708H27.5635C27.9807 19.7708 28.3189 20.109 28.3189 20.5262Z" fill="white"/>
<path fill-rule="evenodd" clip-rule="evenodd" d="M28.3189 27.5899C28.3189 28.0071 27.9807 28.3453 27.5635 28.3453H17.843C17.4258 28.3453 17.0876 28.0071 17.0876 27.5899C17.0876 27.1727 17.4258 26.8344 17.843 26.8344H27.5635C27.9807 26.8344 28.3189 27.1727 28.3189 27.5899Z" fill="white"/>
<path fill-rule="evenodd" clip-rule="evenodd" d="M41.951 35.1128C41.951 35.53 41.6128 35.8682 41.1956 35.8682H31.4751C31.0579 35.8682 30.7196 35.53 30.7196 35.1128C30.7196 34.6955 31.0579 34.3573 31.4751 34.3573H41.1956C41.6128 34.3573 41.951 34.6955 41.951 35.1128Z" fill="white"/>
<path fill-rule="evenodd" clip-rule="evenodd" d="M41.951 31.5809C41.951 31.9981 41.6128 32.3363 41.1956 32.3363H31.4751C31.0579 32.3363 30.7196 31.9981 30.7196 31.5809C30.7196 31.1637 31.0579 30.8254 31.4751 30.8254H41.1956C41.6128 30.8254 41.951 31.1637 41.951 31.5809Z" fill="white"/>
<path fill-rule="evenodd" clip-rule="evenodd" d="M14.0002 19.029C14.0002 17.4414 15.2872 16.1544 16.8747 16.1544H28.6006C30.1882 16.1544 31.4752 17.4414 31.4752 19.029V39.8455H15.462C14.6547 39.8455 14.0002 39.191 14.0002 38.3837V19.029ZM16.8747 17.6653C16.1216 17.6653 15.511 18.2758 15.511 19.029V38.3346H29.9643V19.029C29.9643 18.2758 29.3537 17.6653 28.6006 17.6653H16.8747Z" fill="white"/>
<path fill-rule="evenodd" clip-rule="evenodd" d="M29.964 30.1897C29.964 28.6022 31.2509 27.3152 32.8385 27.3152H39.1253C40.7128 27.3152 41.9998 28.6022 41.9998 30.1897V38.3837C41.9998 39.191 41.3454 39.8455 40.538 39.8455H29.964V30.1897ZM32.8385 28.826C32.0854 28.826 31.4748 29.4366 31.4748 30.1897V38.3347H40.489V30.1897C40.489 29.4366 39.8784 28.826 39.1253 28.826H32.8385Z" fill="white"/>
<path fill-rule="evenodd" clip-rule="evenodd" d="M18.3081 35.1344C18.3081 32.6495 20.3224 30.6351 22.8073 30.6351C25.2922 30.6351 27.3065 32.6495 27.3065 35.1344V39.8455H18.3081V35.1344ZM22.8073 32.146C21.1569 32.146 19.8189 33.4839 19.8189 35.1344V38.3346H25.7957V35.1344C25.7957 33.4839 24.4577 32.146 22.8073 32.146Z" fill="white"/>
<path d="M19.8189 35.1344C19.8189 33.4839 21.1569 32.146 22.8073 32.146C24.4577 32.146 25.7957 33.4839 25.7957 35.1344V38.3346H19.8189V35.1344Z" fill="white"/>
</svg>
