<svg width="56" height="56" viewBox="0 0 56 56" fill="none" xmlns="http://www.w3.org/2000/svg">
<circle cx="28" cy="28" r="28" fill="#32245B"/>
<path fill-rule="evenodd" clip-rule="evenodd" d="M16.1378 37.3284C16.1378 36.1712 17.0759 35.233 18.2332 35.233H19.3672C20.5245 35.233 21.4626 36.1712 21.4626 37.3284V39.1394C21.4626 40.2966 20.5245 41.2347 19.3672 41.2347H18.2332C17.0759 41.2347 16.1378 40.2966 16.1378 39.1394V37.3284ZM18.2332 36.7073C17.8901 36.7073 17.6121 36.9854 17.6121 37.3284V39.1394C17.6121 39.4824 17.8901 39.7605 18.2332 39.7605H19.3672C19.7103 39.7605 19.9883 39.4824 19.9883 39.1394V37.3284C19.9883 36.9854 19.7102 36.7073 19.3672 36.7073H18.2332Z" fill="white"/>
<path fill-rule="evenodd" clip-rule="evenodd" d="M34.5348 37.3284C34.5348 36.1712 35.4729 35.233 36.6302 35.233H37.7642C38.9215 35.233 39.8596 36.1712 39.8596 37.3284V39.1394C39.8596 40.2966 38.9215 41.2347 37.7642 41.2347H36.6302C35.4729 41.2347 34.5348 40.2966 34.5348 39.1394V37.3284ZM36.6302 36.7073C36.2871 36.7073 36.0091 36.9854 36.0091 37.3284V39.1394C36.0091 39.4824 36.2871 39.7605 36.6302 39.7605H37.7642C38.1072 39.7605 38.3853 39.4824 38.3853 39.1394V37.3284C38.3853 36.9854 38.1072 36.7073 37.7642 36.7073H36.6302Z" fill="white"/>
<path d="M17.6121 37.3284C17.6121 36.9854 17.8901 36.7073 18.2332 36.7073H19.3672C19.7102 36.7073 19.9883 36.9854 19.9883 37.3284V39.1394C19.9883 39.4824 19.7103 39.7605 19.3672 39.7605H18.2332C17.8901 39.7605 17.6121 39.4824 17.6121 39.1394V37.3284Z" fill="white"/>
<path d="M36.0091 37.3284C36.0091 36.9854 36.2871 36.7073 36.6302 36.7073H37.7642C38.1072 36.7073 38.3853 36.9854 38.3853 37.3284V39.1394C38.3853 39.4824 38.1072 39.7605 37.7642 39.7605H36.6302C36.2871 39.7605 36.0091 39.4824 36.0091 39.1394V37.3284Z" fill="white"/>
<path fill-rule="evenodd" clip-rule="evenodd" d="M14 23.0672C14 21.785 15.0395 20.7455 16.3217 20.7455H18.4243C19.2076 20.7455 19.7772 21.4893 19.573 22.2455L18.9618 24.5092C18.8217 25.0283 18.3508 25.3889 17.8131 25.3889H16.3217C15.0395 25.3889 14 24.3495 14 23.0672ZM16.3217 22.2197C15.8537 22.2197 15.4742 22.5992 15.4742 23.0672C15.4742 23.5353 15.8537 23.9147 16.3217 23.9147H17.5953L18.0529 22.2197H16.3217Z" fill="white"/>
<path d="M15.4742 23.0672C15.4742 22.5992 15.8537 22.2197 16.3217 22.2197H18.0529L17.5953 23.9147H16.3217C15.8537 23.9147 15.4742 23.5353 15.4742 23.0672Z" fill="white"/>
<path fill-rule="evenodd" clip-rule="evenodd" d="M42 23.0672C42 21.785 40.9605 20.7455 39.6783 20.7455H37.5757C36.7924 20.7455 36.2228 21.4893 36.427 22.2455L37.0382 24.5092C37.1783 25.0283 37.6492 25.3889 38.1869 25.3889H39.6783C40.9605 25.3889 42 24.3495 42 23.0672ZM39.6783 22.2197C40.1463 22.2197 40.5258 22.5992 40.5258 23.0672C40.5258 23.5353 40.1463 23.9147 39.6783 23.9147H38.4047L37.9471 22.2197H39.6783Z" fill="white"/>
<path d="M40.5258 23.0672C40.5258 22.5992 40.1463 22.2197 39.6783 22.2197H37.9471L38.4047 23.9147H39.6783C40.1463 23.9147 40.5258 23.5353 40.5258 23.0672Z" fill="white"/>
<path fill-rule="evenodd" clip-rule="evenodd" d="M19.5797 17.4518C19.7748 16.4714 20.6352 15.7653 21.6348 15.7653H34.8076C35.8072 15.7653 36.6676 16.4714 36.8626 17.4518L38.0336 23.3374C38.1567 23.9561 37.995 24.5548 37.6487 25.0116C37.2695 25.5116 36.6691 25.8416 35.9785 25.8416H20.4639C19.7422 25.8416 19.119 25.4812 18.7439 24.943C18.4321 24.4957 18.2918 23.9256 18.4088 23.3374L19.5797 17.4518ZM21.6348 17.2395C21.3385 17.2395 21.0835 17.4488 21.0256 17.7394L19.8547 23.6251C19.7783 24.0092 20.0722 24.3674 20.4639 24.3674H35.9785C36.3702 24.3674 36.6641 24.0092 36.5877 23.6251L35.4167 17.7394C35.3589 17.4488 35.1039 17.2395 34.8076 17.2395H21.6348Z" fill="white"/>
<path fill-rule="evenodd" clip-rule="evenodd" d="M19.7846 23.7867L18.7439 24.943L17.4819 26.3452C17.0348 26.842 16.6654 27.3963 16.3807 27.9893C16.1551 28.4595 15.9827 28.954 15.8673 29.4635C15.7539 29.9644 15.6954 30.4798 15.6954 31.0008V31.6112V33.0855V34.6121C15.6954 34.9551 15.9735 35.2332 16.3165 35.2332H39.698C40.041 35.2332 40.3191 34.9551 40.3191 34.6121V33.076V31.6207V30.7734C40.3191 30.3312 40.277 29.8928 40.1947 29.4635C40.0975 28.9562 39.9441 28.4617 39.7379 27.9893C39.4894 27.4199 39.1641 26.8825 38.7676 26.393L37.6487 25.0116L36.6329 23.7575L37.7785 22.8296L39.9132 25.4651C41.1296 26.9668 41.7933 28.8408 41.7933 30.7734V34.6121C41.7933 35.7694 40.8552 36.7075 39.698 36.7075H16.3165C15.1593 36.7075 14.2212 35.7693 14.2212 34.6121V31.0008C14.2212 28.9173 14.9924 26.9076 16.3861 25.359L18.6888 22.8005L19.7846 23.7867Z" fill="white"/>
<path fill-rule="evenodd" clip-rule="evenodd" d="M14.8629 28.7264C14.8629 28.3193 15.193 27.9893 15.6001 27.9893H16.3807H19.4865C21.0689 27.9893 22.3653 29.2142 22.4792 30.7676C22.9259 31.4333 23.6772 31.8376 24.4862 31.8376H31.3144C32.1234 31.8376 32.8748 31.4333 33.3214 30.7676C33.4353 29.2142 34.7317 27.9893 36.3141 27.9893H39.7379H40.2005C40.6077 27.9893 40.9377 28.3193 40.9377 28.7264C40.9377 29.1335 40.6077 29.4635 40.2005 29.4635H40.1947H36.3141C35.471 29.4635 34.7876 30.147 34.7876 30.9901C34.7876 31.3331 35.0656 31.6112 35.4087 31.6112H40.2005C40.2409 31.6112 40.2805 31.6145 40.3191 31.6207C40.6698 31.6774 40.9377 31.9816 40.9377 32.3483C40.9377 32.7151 40.6698 33.0193 40.3191 33.076C40.2805 33.0822 40.2409 33.0855 40.2005 33.0855H35.4087C34.7848 33.0855 34.2247 32.8129 33.8408 32.3803C33.1469 32.9724 32.2549 33.3118 31.3144 33.3118H24.4862C23.5457 33.3118 22.6537 32.9724 21.9598 32.3803C21.5759 32.8129 21.0158 33.0855 20.392 33.0855H15.6954H15.6001C15.193 33.0855 14.8629 32.7554 14.8629 32.3483C14.8629 31.9412 15.193 31.6112 15.6001 31.6112H15.6954H20.392C20.735 31.6112 21.0131 31.3331 21.0131 30.9901C21.0131 30.147 20.3296 29.4635 19.4865 29.4635H15.8673H15.6001C15.193 29.4635 14.8629 29.1335 14.8629 28.7264Z" fill="white"/>
<path d="M35.9785 25.8416H20.4639C19.7422 25.8416 19.119 25.4812 18.7439 24.943L17.4819 26.3452C17.0348 26.842 16.6654 27.3963 16.3807 27.9893H19.4865C21.0689 27.9893 22.3653 29.2142 22.4792 30.7676C22.9259 31.4333 23.6772 31.8376 24.4862 31.8376H31.3144C32.1234 31.8376 32.8748 31.4333 33.3214 30.7676C33.4353 29.2142 34.7317 27.9893 36.3141 27.9893H39.7379C39.4894 27.4199 39.1641 26.8825 38.7676 26.393L37.6487 25.0116C37.2695 25.5116 36.6691 25.8416 35.9785 25.8416Z" fill="white"/>
<path fill-rule="evenodd" clip-rule="evenodd" d="M29.9106 18.3762C30.126 18.7217 30.0205 19.1763 29.6751 19.3917L24.3271 22.7255C23.9817 22.9409 23.527 22.8354 23.3116 22.4899C23.0963 22.1445 23.2018 21.6898 23.5472 21.4745L28.8952 18.1406C29.2406 17.9253 29.6953 18.0307 29.9106 18.3762ZM32.691 20.0423C32.9069 20.3874 32.802 20.8422 32.4568 21.0581L28.6063 23.4658C28.2612 23.6817 27.8064 23.5768 27.5905 23.2316C27.3747 22.8865 27.4795 22.4317 27.8247 22.2158L31.6752 19.8081C32.0204 19.5922 32.4752 19.6971 32.691 20.0423Z" fill="white"/>
</svg>
