<svg width="56" height="56" viewBox="0 0 56 56" fill="none" xmlns="http://www.w3.org/2000/svg">
<circle cx="28" cy="28" r="28" fill="#0CA4C4"/>
<path fill-rule="evenodd" clip-rule="evenodd" d="M25.572 20.4701L26.3241 30.182L17.2233 31.5269C15.5249 31.7779 14 30.4617 14 28.7449C14 27.738 14.5384 26.8079 15.4115 26.3064L25.572 20.4701ZM24.3473 22.7881L16.1088 27.5203C15.6703 27.7722 15.4 28.2393 15.4 28.7449C15.4 29.607 16.1658 30.268 17.0187 30.1419L24.8274 28.9879L24.3473 22.7881Z" fill="white"/>
<path d="M16.1088 27.5203L24.3473 22.7881L24.8274 28.9879L17.0187 30.1419C16.1658 30.268 15.4 29.607 15.4 28.7449C15.4 28.2393 15.6703 27.7722 16.1088 27.5203Z" fill="white"/>
<path fill-rule="evenodd" clip-rule="evenodd" d="M30.428 20.47L29.6759 30.1819L38.7767 31.5268C40.4751 31.7778 42 30.4616 42 28.7448C42 27.7379 41.4616 26.8078 40.5885 26.3063L30.428 20.47ZM31.6527 22.788L39.8912 27.5203C40.3297 27.7721 40.6 28.2392 40.6 28.7448C40.6 29.607 39.8342 30.2679 38.9813 30.1418L31.1726 28.9878L31.6527 22.788Z" fill="white"/>
<path d="M39.8912 27.5203L31.6527 22.788L31.1726 28.9878L38.9813 30.1418C39.8342 30.2679 40.6 29.607 40.6 28.7448C40.6 28.2392 40.3297 27.7721 39.8912 27.5203Z" fill="white"/>
<path fill-rule="evenodd" clip-rule="evenodd" d="M26.4163 32.3101L26.8198 37.5203L22.503 38.1583C21.5264 38.3026 20.6495 37.5458 20.6495 36.5586C20.6495 35.9796 20.9591 35.4448 21.4612 35.1564L26.4163 32.3101ZM25.1917 34.6281L22.1585 36.3704C22.0911 36.4091 22.0495 36.4809 22.0495 36.5586C22.0495 36.6911 22.1672 36.7927 22.2983 36.7733L25.3232 36.3263L25.1917 34.6281Z" fill="white"/>
<path d="M22.1585 36.3704L25.1917 34.6281L25.3232 36.3263L22.2983 36.7733C22.1672 36.7927 22.0495 36.6911 22.0495 36.5586C22.0495 36.4809 22.0911 36.4091 22.1585 36.3704Z" fill="white"/>
<path fill-rule="evenodd" clip-rule="evenodd" d="M29.5766 32.3101L29.1731 37.5203L33.4899 38.1583C34.4665 38.3026 35.3434 37.5458 35.3434 36.5586C35.3434 35.9796 35.0339 35.4448 34.5318 35.1564L29.5766 32.3101ZM30.8013 34.6281L33.8345 36.3704C33.9019 36.4091 33.9434 36.4809 33.9434 36.5586C33.9434 36.6911 33.8257 36.7927 33.6946 36.7733L30.6698 36.3263L30.8013 34.6281Z" fill="white"/>
<path d="M33.8345 36.3704L30.8013 34.6281L30.6698 36.3263L33.6946 36.7733C33.8257 36.7927 33.9434 36.6911 33.9434 36.5586C33.9434 36.4809 33.9019 36.4091 33.8345 36.3704Z" fill="white"/>
<path fill-rule="evenodd" clip-rule="evenodd" d="M24.1594 19.045C24.0013 16.8204 25.7633 14.9286 27.9935 14.9286C30.2237 14.9286 31.9858 16.8204 31.8277 19.045L30.5851 36.5234C30.4884 37.8833 29.3569 38.9372 27.9935 38.9372C26.6301 38.9372 25.4986 37.8833 25.4019 36.5234L24.1594 19.045ZM27.9935 16.3286C26.5756 16.3286 25.4553 17.5313 25.5559 18.9457L26.7984 36.4241C26.843 37.0512 27.3648 37.5372 27.9935 37.5372C28.6223 37.5372 29.1441 37.0512 29.1886 36.4241L30.4312 18.9457C30.5317 17.5313 29.4114 16.3286 27.9935 16.3286Z" fill="white"/>
<path fill-rule="evenodd" clip-rule="evenodd" d="M27.999 33.8138C28.3856 33.8138 28.699 34.1272 28.699 34.5138V41.3714C28.699 41.758 28.3856 42.0714 27.999 42.0714C27.6124 42.0714 27.299 41.758 27.299 41.3714V34.5138C27.299 34.1272 27.6124 33.8138 27.999 33.8138Z" fill="white"/>
<path fill-rule="evenodd" clip-rule="evenodd" d="M28.3197 19.3695C28.144 19.1924 27.8579 19.1918 27.6815 19.3682L26.9756 20.074C26.755 20.2946 26.3974 20.2946 26.1768 20.074C25.9562 19.8535 25.9562 19.4958 26.1768 19.2752L26.8826 18.5694C27.5015 17.9505 28.5054 17.9526 29.1217 18.5739L29.8191 19.2768C30.0388 19.4983 30.0373 19.8559 29.8159 20.0756C29.5944 20.2953 29.2368 20.2939 29.0171 20.0724L28.3197 19.3695Z" fill="white"/>
</svg>
