<svg width="703" height="639" viewBox="0 0 703 639" fill="none" xmlns="http://www.w3.org/2000/svg">
<g clip-path="url(#clip0_2001_24678)">
<mask id="mask0_2001_24678" style="mask-type:luminance" maskUnits="userSpaceOnUse" x="0" y="248" width="703" height="391">
<path d="M703 248H0V639H703V248Z" fill="white"/>
</mask>
<g mask="url(#mask0_2001_24678)">
<path d="M703 639V551.082H695.472V509.211H684.488V363.563H668.589V344.784L634.677 328.959V310.008H629.967V363.563H623.384V509.211H616.818V432.633H598.959V393.167H593.975V509.211H580.396V465.037H571.475V453.766H550.798V415.245H539.471V387.995H525.548V348.306H520.581V387.995H506.658V415.245H495.331V453.766H474.654V465.037H465.733V509.211H455.145V453.766H434.468V334.44H427.885V321.279H383.711V334.44H374.309V420.881H336.701V429.334H322.607V435.914H336.701V469.745H297.237V357H288.763V333.031H270.44V248H265.266V333.031H252.117V357H174.959V349.113H170.267V402.668H163.684V403.596H159.731V457.151H153.147V471.721H139.242V432.255H134.258V526.22H128.706V486.755H123.738V548.299H120.696V504.142H111.775V492.854H91.0978V454.333H79.7707V427.083H65.8482V387.394H60.8808V427.083H46.9583V454.333H35.6313V492.854H14.9538V504.142H6.01589V547.354H4.41738V548.299H0V639H703Z" fill="#E6E6E6"/>
</g>
<mask id="mask1_2001_24678" style="mask-type:luminance" maskUnits="userSpaceOnUse" x="237" y="0" width="296" height="639">
<path d="M533 0H237V639H533V0Z" fill="white"/>
</mask>
<g mask="url(#mask1_2001_24678)">
<path d="M445.06 388.996L453.256 375.629L458.922 356.266C447.878 361.306 444.164 371.897 440.739 377.192L434.016 388.517C434.816 390.782 437.025 392.186 439.554 392.09C441.731 391.994 443.812 390.846 445.06 388.996Z" fill="#8A4F16"/>
<path d="M380.999 131.016H363.52V140.458H380.999V131.016Z" fill="#F1F1F1"/>
<path d="M353.625 573.126L324.812 572.68L326.381 600.944L358.555 604.548L353.625 573.126Z" fill="#C4C4C4"/>
<path d="M316.556 638.999C328.657 638.999 348.058 638.999 348.058 638.999L364.545 634.182C368.61 620.592 360.031 601.675 360.031 601.675L322.126 599.984L316.588 607.832L307.592 611.086L282.141 619.539C274.65 622.315 272.537 627.961 274.009 635.649L275.418 638.999H316.556Z" fill="#121212"/>
<path d="M364.543 634.183L273.336 634.119L273.976 639H363.935L364.543 634.183Z" fill="#292829"/>
<path d="M390.957 573.126L386.027 604.548L418.201 600.944L419.77 572.68L390.957 573.126Z" fill="#C4C4C4"/>
<path d="M428.029 638.999H469.135L470.543 635.649C472.016 627.961 469.903 622.315 462.412 619.539L436.961 611.086L427.965 607.832L422.426 599.984L384.522 601.675C384.522 601.675 375.91 620.592 380.008 634.182L396.495 638.999C396.527 638.999 415.928 638.999 428.029 638.999Z" fill="#121212"/>
<path d="M471.246 634.119L380.039 634.183L380.647 639H470.574L471.246 634.119Z" fill="#292829"/>
<path d="M437.565 156.823C424.631 147.795 402.061 136.088 380.452 136.088H364.125C342.516 136.088 319.946 147.795 307.012 156.823C290.077 168.658 316.328 201.548 316.328 201.548C316.328 201.548 313.127 237.691 311.974 275.302C311.206 300.376 317.353 310.074 317.353 310.074C317.353 310.074 326.253 324.014 372.32 324.014C418.388 324.014 427.288 310.074 427.288 310.074C427.288 310.074 433.435 300.376 432.667 275.302C431.514 237.691 428.313 201.548 428.313 201.548C428.313 201.548 454.5 168.658 437.565 156.823Z" fill="#F1F1F1"/>
<path d="M383.53 136.566C380.553 136.279 377.543 136.088 374.566 136.088C369.476 136.088 364.546 136.152 359.68 136.375C362.561 140.618 366.883 147.094 371.237 147.221C375.815 147.349 380.457 140.905 383.53 136.566Z" fill="#8A4F16"/>
<path d="M377.832 115.545H366.883L366.915 131.559V137.556C370.052 140.332 374.758 140.3 377.864 137.556V131.559L377.832 115.545Z" fill="#8A4F16"/>
<path d="M377.832 119.689H366.883V127.441V128.558C366.883 130.025 369.252 131.333 372.293 131.365C372.325 131.365 372.357 131.365 372.421 131.365C375.495 131.365 377.832 130.025 377.832 128.558V127.441V119.689Z" fill="#824115"/>
<path d="M322.445 43.8952C322.445 46.3515 323.598 48.5207 325.423 50.0839C324.686 51.2642 324.238 52.604 324.238 54.0395C324.238 58.5375 328.368 62.1742 333.458 62.1742C336.82 62.1742 339.765 60.5792 341.365 58.2185H403.152C404.753 60.5792 407.698 62.1742 411.06 62.1742C416.15 62.1742 420.28 58.5375 420.28 54.0395C420.28 52.604 419.863 51.2642 419.095 50.0839C420.92 48.5207 422.072 46.3515 422.072 43.8952C422.072 41.5345 421.016 39.3972 419.319 37.866C421.56 35.5372 422.617 32.2834 421.848 29.3166C420.792 25.1695 416.374 21.8838 411.54 21.6605C413.076 18.4385 412.244 14.4829 409.555 11.9308C406.866 9.37876 402.448 8.38985 398.702 9.47446C395.949 3.60476 389.066 1.91403 382.439 4.24277C380.038 1.65883 376.421 0 372.323 0C368.257 0 364.608 1.65883 362.239 4.24277C355.612 1.91403 348.729 3.60476 345.975 9.47446C342.23 8.38985 337.812 9.37876 335.123 11.9308C332.434 14.4829 331.633 18.4385 333.138 21.6605C328.336 21.8838 323.886 25.1695 322.829 29.3166C322.061 32.2834 323.118 35.4734 325.295 37.8022C323.534 39.3334 322.445 41.5026 322.445 43.8952Z" fill="#422715"/>
<path d="M330.866 92.2243H334.707L334.675 70.5957H328.433C325.199 70.5957 322.222 72.3821 320.685 75.2213C319.277 77.8371 319.309 81.0272 320.749 83.6111L322.958 87.5668C324.559 90.4379 327.6 92.2243 330.866 92.2243Z" fill="#824115"/>
<path d="M421.626 86.7699L423.803 82.8143C425.243 80.1984 425.275 77.0403 423.835 74.4244C422.298 71.5853 419.321 69.7988 416.055 69.7988H409.812L409.877 91.4274H413.717C417.015 91.4274 420.057 89.641 421.626 86.7699Z" fill="#824115"/>
<path d="M372.355 127.059C395.885 127.027 414.932 108.015 414.9 84.5678L414.836 48.2012C414.804 24.7224 395.725 5.74158 372.194 5.77348C348.664 5.80538 329.616 24.8181 329.648 48.265L329.713 84.6316C329.745 108.11 348.825 127.091 372.355 127.059Z" fill="#8A4F16"/>
<path d="M329.36 65.3965C329.36 65.3965 328.08 86.1318 328.944 100.966C329.809 115.767 346.776 131.016 372.259 131.016C397.742 131.016 414.741 115.767 415.574 100.966C416.438 86.1318 415.189 65.3965 415.189 65.3965H412.628C413.493 75.1262 413.173 88.3968 403.28 95.4468C397.326 99.6896 381.191 93.7561 372.259 93.7561C363.327 93.7561 347.192 99.6896 341.238 95.4468C331.345 88.3968 331.057 75.1262 331.889 65.3965H329.36Z" fill="#422715"/>
<path d="M376.837 95.5435C378.598 94.4589 379.43 92.8957 379.142 91.3645C379.11 91.2369 378.79 90.9817 378.342 90.7265C374.628 88.5573 370.018 88.5572 366.337 90.7583C365.857 91.0454 365.536 91.2687 365.536 91.3963C365.248 92.9275 366.081 94.4908 367.841 95.5435C370.659 96.8514 373.956 96.8514 376.837 95.5435Z" fill="#824115"/>
<path d="M347.319 76.4654C347.479 75.9869 347.767 75.2851 348.28 74.5514C348.792 73.8177 349.528 73.052 350.489 72.5416C350.969 72.2864 351.513 72.0631 352.057 71.9674C352.602 71.8398 353.242 71.776 353.818 71.776C355.003 71.7441 356.155 72.0631 357.084 72.6692C358.012 73.2753 358.684 74.0729 359.164 74.8385C360.093 76.3697 360.317 77.55 360.317 77.55L360.477 77.5181C360.477 77.5181 360.541 77.1991 360.541 76.6249C360.509 76.0507 360.445 75.2213 360.061 74.2962C359.709 73.371 359.036 72.2545 357.916 71.4251C357.372 71.0104 356.731 70.6276 355.995 70.4362C355.291 70.2448 354.554 70.1172 353.818 70.1172H353.53L353.21 70.1491L352.794 70.181C352.538 70.2129 352.121 70.2767 351.737 70.3724C350.969 70.5319 350.361 70.8828 349.784 71.2337C349.176 71.5846 348.728 72.0631 348.312 72.5416C347.928 73.0201 347.639 73.4986 347.415 73.9772C346.999 74.9023 346.903 75.7636 346.871 76.3059C346.871 76.8801 346.935 77.1991 346.935 77.1991L347.095 77.231C347.095 77.2629 347.159 76.9439 347.319 76.4654Z" fill="#824115"/>
<path d="M360.413 77.5167C360.413 77.5167 359.229 71.4237 353.594 71.5832C347.96 71.7427 347.031 77.1977 347.031 77.1977C347.031 77.1977 348.888 80.1326 353.626 80.1007C358.332 80.1007 360.413 77.5167 360.413 77.5167Z" fill="white"/>
<path d="M357.853 75.8584C357.853 73.4977 355.932 71.5837 353.563 71.6156C351.194 71.6156 349.273 73.5296 349.305 75.8903C349.305 78.2509 351.226 80.165 353.595 80.1331C355.964 80.1331 357.885 78.219 357.853 75.8584Z" fill="#422715"/>
<path d="M355.485 75.8588C355.485 74.8061 354.62 73.9766 353.596 73.9766C352.539 73.9766 351.707 74.838 351.707 75.8588C351.707 76.9115 352.571 77.7409 353.596 77.7409C354.652 77.7728 355.485 76.9115 355.485 75.8588Z" fill="black"/>
<path d="M357.051 73.9772C357.051 73.1159 356.347 72.4141 355.483 72.4141C354.618 72.4141 353.914 73.1159 353.914 73.9772C353.914 74.8385 354.618 75.5403 355.483 75.5403C356.347 75.5722 357.051 74.8385 357.051 73.9772Z" fill="white"/>
<path d="M384.715 76.4654C384.875 75.9869 385.163 75.2851 385.675 74.5514C386.187 73.8177 386.924 73.052 387.884 72.5416C388.364 72.2864 388.908 72.0631 389.453 71.9674C389.997 71.8398 390.637 71.776 391.213 71.776C392.398 71.7441 393.55 72.0631 394.479 72.6692C395.407 73.2753 396.079 74.0729 396.56 74.8385C397.488 76.3697 397.712 77.55 397.712 77.55L397.872 77.5181C397.872 77.5181 397.936 77.1991 397.936 76.6249C397.904 76.0507 397.84 75.2213 397.456 74.2962C397.104 73.371 396.432 72.2545 395.311 71.4251C394.767 71.0104 394.127 70.6276 393.39 70.4362C392.686 70.2448 391.95 70.1172 391.213 70.1172H390.925L390.605 70.1491L390.157 70.181C389.901 70.2129 389.485 70.2767 389.1 70.3724C388.332 70.5319 387.724 70.8828 387.148 71.2337C386.539 71.5846 386.091 72.0631 385.675 72.5416C385.291 73.0201 385.003 73.4986 384.779 73.9772C384.362 74.9023 384.266 75.7636 384.234 76.3059C384.234 76.8801 384.298 77.1991 384.298 77.1991L384.458 77.231C384.49 77.2629 384.522 76.9439 384.715 76.4654Z" fill="#824115"/>
<path d="M397.772 77.5167C397.772 77.5167 396.588 71.4237 390.953 71.5832C385.319 71.7427 384.391 77.1977 384.391 77.1977C384.391 77.1977 386.247 80.1326 390.985 80.1007C395.692 80.1007 397.772 77.5167 397.772 77.5167Z" fill="white"/>
<path d="M395.243 75.8584C395.243 73.4977 393.323 71.5837 390.954 71.6156C388.585 71.6156 386.664 73.5296 386.696 75.8903C386.696 78.2509 388.617 80.165 390.986 80.1331C393.323 80.1331 395.243 78.219 395.243 75.8584Z" fill="#422715"/>
<path d="M392.875 75.8588C392.875 74.8061 392.011 73.9766 390.986 73.9766C389.93 73.9766 389.098 74.838 389.098 75.8588C389.098 76.9115 389.962 77.7409 390.986 77.7409C392.011 77.7728 392.875 76.9115 392.875 75.8588Z" fill="black"/>
<path d="M394.442 73.9772C394.442 73.1159 393.738 72.4141 392.873 72.4141C392.009 72.4141 391.305 73.1159 391.305 73.9772C391.305 74.8385 392.009 75.5403 392.873 75.5403C393.738 75.5722 394.442 74.8385 394.442 73.9772Z" fill="white"/>
<path d="M360.766 59.7187C360.766 58.347 359.645 57.2305 358.269 57.2305H347.608C344.727 57.2305 342.422 59.5592 342.422 62.3984V63.3235L360.766 63.2916V59.7187Z" fill="#422715"/>
<path d="M402.192 62.3652C402.192 59.4941 399.855 57.1973 397.005 57.1973H386.345C384.968 57.1973 383.848 58.3138 383.848 59.6855V63.2903L402.192 63.2584V62.3652Z" fill="#422715"/>
<path d="M329.838 70.596C332.432 69.3519 334.352 66.9275 334.865 63.9607L338.002 38.2169C338.77 33.8785 342.548 30.6884 346.966 30.6884L361.244 19.9698L368.351 5.45508C365.886 5.45508 363.453 5.93359 361.18 6.8268C360.188 5.93359 358.875 5.45508 357.53 5.45508C356.858 5.45508 356.186 5.51888 355.514 5.55078C352.952 6.8587 350.199 7.62432 347.414 8.70893C345.909 10.1764 344.021 11.4205 343.124 12.1223C341.331 13.494 339.218 14.7381 337.682 16.4289C334.801 19.4913 332.912 23.2875 330.031 26.3818C329.998 26.4137 329.999 26.4137 329.966 26.4137C328.43 30.4013 327.469 34.7398 326.861 39.2059C326.733 40.0353 326.349 40.5457 325.805 40.8328L325.837 70.9788C326.637 70.7236 327.501 70.596 328.366 70.596H329.838Z" fill="#422715"/>
<path d="M383.209 21.085L397.487 30.6233C401.905 30.6233 405.715 33.7814 406.483 38.1199L409.652 63.8637C410.101 66.3519 411.541 68.4573 413.526 69.7972H416.087C416.952 69.7972 417.816 69.9248 418.616 70.18L418.584 39.5873C415.479 30.9423 413.174 19.9047 404.53 15.0877C399.344 12.2167 393.87 10.1112 389.42 6.21939C387.627 5.93228 385.802 5.67709 383.977 5.42188C381.32 5.42188 377.639 5.42188 376.006 5.42188L353.82 5.45377C349.05 7.0807 344.792 9.85606 340.343 12.4719C336.885 16.6508 335.38 21.1488 339.35 21.1488L383.209 21.085Z" fill="#422715"/>
<path d="M419.286 51.7414C419.286 49.317 419.286 46.8287 418.55 44.4681C416.917 39.2364 411.923 25.6149 407.153 21.8506C402.383 18.0863 397.517 19.7133 391.626 17.1612C385.736 14.6092 378.533 10.5259 372.258 12.408C365.983 10.5259 358.812 14.6092 352.889 17.1612C346.999 19.7133 342.133 18.0863 337.363 21.8506C332.593 25.6468 327.598 39.2364 325.966 44.4681C325.229 46.8287 325.229 49.2851 325.229 51.7414C325.229 53.5278 337.971 47.6262 336.883 43.6706C339.284 44.3405 342.005 43.5111 343.798 42.0755C345.558 40.64 346.519 38.6622 347.127 36.6843C352.697 39.3002 360.893 36.8758 362.974 31.9631C366.143 34.6746 368.96 34.9617 372.162 34.9617H372.322C375.523 34.9617 378.34 34.6746 381.51 31.9631C383.623 36.8439 391.818 39.3002 397.357 36.6843C397.965 38.6622 398.893 40.64 400.686 42.0755C402.447 43.5111 405.2 44.3405 407.601 43.6706C406.545 47.6262 419.286 53.5278 419.286 51.7414Z" fill="#422715"/>
<path d="M372.258 155.483H375.011C376.708 152.739 379.269 148.082 379.269 148.082L379.493 144.828H372.258H365.055L365.279 148.082C365.279 148.082 367.84 152.739 369.537 155.483H372.258Z" fill="#FF5D3E"/>
<path d="M371.298 144.829C365.631 137.779 363.486 131.016 363.486 131.016L353.914 136.375C354.971 144.573 361.693 153.601 361.693 153.601C363.134 149.071 371.298 144.829 371.298 144.829Z" fill="#FEFEFE"/>
<path d="M390.601 136.375L381.029 131.016C381.029 131.016 378.916 137.779 373.25 144.829C373.25 144.829 381.414 149.071 382.822 153.569C382.822 153.569 389.545 144.541 390.601 136.375Z" fill="#FEFEFE"/>
<path d="M374.436 151.049H369.922C363.359 188.628 359.614 233.416 358.749 272.526C358.685 275.78 366.081 280.948 372.323 291.571C378.534 280.948 385.929 275.812 385.865 272.558C384.905 233.416 381.063 188.66 374.436 151.049Z" fill="#FF5D3E"/>
<path d="M422.713 595.073C428.796 568.404 441.633 501.827 442.37 463.26C443.138 423.416 442.241 373.842 441.505 344.749L440.641 321.047H303.91L303.045 344.749C302.309 373.842 301.413 423.416 302.181 463.26C302.949 501.827 315.755 568.372 321.837 595.073C334.131 597.752 349.689 596.285 360.542 594.881C360.542 594.881 359.838 519.66 362.463 492.895C365.824 458.698 370.082 421.534 372.227 367.526C374.404 421.534 378.63 458.698 381.991 492.895C384.617 519.628 383.912 594.881 383.912 594.881C394.861 596.285 410.42 597.72 422.713 595.073Z" fill="#292229"/>
<path d="M440.481 307.299L304.102 307.522L304.646 320.857L440.224 321.048L440.481 307.299Z" fill="#292229"/>
<path d="M520.483 504.763C527.398 504.763 532.969 499.18 532.969 492.322V417.26C532.969 410.369 527.366 404.818 520.483 404.818H392.876C385.961 404.818 380.391 410.401 380.391 417.26V492.322C380.391 499.212 385.993 504.763 392.876 504.763H520.483Z" fill="#1E2A42"/>
<path d="M472.814 439.878C485.459 439.878 495.768 429.606 495.768 417.005V398.918C495.768 386.317 485.459 376.045 472.814 376.045H440.544C427.898 376.045 417.59 386.285 417.59 398.918V417.005C417.59 429.606 427.898 439.878 440.544 439.878H472.814ZM427.194 417.037V398.95C427.194 391.612 433.181 385.647 440.544 385.647H472.814C480.177 385.647 486.164 391.612 486.164 398.95V417.037C486.164 424.374 480.177 430.34 472.814 430.34H440.544C433.181 430.308 427.194 424.342 427.194 417.037Z" fill="#3D5388"/>
<path d="M502.556 487.218C504.541 487.218 506.174 485.623 506.174 483.614V472.736C506.174 470.758 504.541 469.131 502.556 469.131H498.586C496.601 469.131 494.969 470.758 494.969 472.736V483.614C494.969 485.592 496.569 487.218 498.586 487.218H502.556Z" fill="#3D5388"/>
<path d="M414.775 487.218C416.76 487.218 418.392 485.623 418.392 483.614V472.736C418.392 470.758 416.792 469.131 414.775 469.131H410.805C408.82 469.131 407.188 470.758 407.188 472.736V483.614C407.188 485.592 408.82 487.218 410.805 487.218H414.775Z" fill="#3D5388"/>
<path d="M423.864 407.977C427.385 407.977 430.266 405.106 430.266 401.597V395.217H413.715C410.194 395.217 407.312 398.088 407.312 401.597C407.312 405.106 410.194 407.977 413.715 407.977H423.864Z" fill="#1E2A42"/>
<path d="M499.641 407.977C503.163 407.977 506.044 405.106 506.044 401.597C506.044 398.088 503.163 395.217 499.641 395.217H483.09V401.597C483.09 405.106 485.971 407.977 489.493 407.977H499.641Z" fill="#1E2A42"/>
<path d="M520.483 478.159C527.398 478.159 532.969 472.576 532.969 465.718V412.986C532.969 406.096 527.366 400.545 520.483 400.545H392.876C385.961 400.545 380.391 406.128 380.391 412.986V465.718C380.391 472.608 385.993 478.159 392.876 478.159H520.483Z" fill="#3D5388"/>
<path d="M470.829 206.076L444.065 219.634C461.321 253.64 467.98 306.116 456.519 363.059C456.295 363.856 456.135 364.271 456.135 364.271L477.168 369.056C476.72 367.493 476.431 366.345 476.271 365.1C482.194 347.14 502.555 273.354 470.829 206.076Z" fill="#8A4F16"/>
<path d="M453.991 391.77L457.065 379.042C457.257 378.244 457.097 377.351 456.648 376.554C455.624 374.735 453.351 373.747 451.462 374.289L450.918 374.448C449.862 374.767 449.093 375.533 448.837 376.554L445.54 389.729C445.059 391.675 445.988 393.716 447.781 394.641C450.278 395.885 453.319 394.514 453.991 391.77Z" fill="#8A4F16"/>
<path d="M457.158 360.125L449.315 371.577L447.266 383.699L476.75 391.834L480.08 385.039C481.873 374.097 480.208 366.696 475.63 362.581L462.088 357.445L457.766 358.083C457.062 358.211 457.862 359.997 457.158 360.125Z" fill="#8A4F16"/>
<path d="M462.442 393.906L464.907 379.009C465.067 377.892 464.587 376.744 463.627 375.883C461.898 374.319 459.081 374.192 457.48 375.595C456.36 376.552 455.687 377.829 455.495 379.232L453.51 392.503C453.158 394.863 454.727 397.096 457.064 397.575C459.593 398.085 462.026 396.427 462.442 393.906Z" fill="#8A4F16"/>
<path d="M478.579 393.621L480.147 384.72C480.339 383.604 479.955 382.455 479.091 381.594C477.874 380.382 475.665 380.222 474.097 381.243C473.424 381.69 472.944 382.296 472.752 382.998L470.991 389.282L470.479 392.185C470.031 394.609 471.824 396.843 474.257 397.002C476.338 397.162 478.226 395.694 478.579 393.621Z" fill="#8A4F16"/>
<path d="M470.864 395.055L471.76 391.928L472.977 381.688C473.201 380.444 472.784 379.168 471.824 378.116C470.479 376.648 468.014 376.297 466.286 377.318C465.549 377.765 465.005 378.403 464.781 379.136L462.348 390.748L462.252 391.737L462.156 393.587C462.028 395.82 463.564 397.798 465.773 398.213C468.014 398.691 470.255 397.288 470.864 395.055Z" fill="#8A4F16"/>
<path d="M439.072 321.047C440.641 321.047 441.889 319.771 441.889 318.24V311.477C441.889 309.914 440.609 308.67 439.072 308.67H305.446C303.877 308.67 302.629 309.946 302.629 311.477V318.24C302.629 319.803 303.909 321.047 305.446 321.047H439.072Z" fill="#324669"/>
<path d="M381.54 323.727C383.108 323.727 384.358 322.451 384.358 320.92V308.797C384.358 307.234 383.076 305.99 381.54 305.99H363.005C361.436 305.99 360.188 307.266 360.188 308.797V320.92C360.188 322.483 361.468 323.727 363.005 323.727H381.54Z" fill="#324669"/>
<path d="M380.966 309.34H363.551V320.346H380.966V309.34Z" fill="#292229"/>
<path d="M410.805 307.521H406.547V323.886H410.805V307.521Z" fill="#292229"/>
<path d="M338.004 307.521H333.746V323.886H338.004V307.521Z" fill="#292229"/>
<path d="M384.042 316.549C384.97 316.549 385.738 315.784 385.738 314.859C385.738 313.934 384.97 313.168 384.042 313.168H371.876C370.948 313.168 370.18 313.934 370.18 314.859C370.18 315.784 370.948 316.549 371.876 316.549H384.042Z" fill="#324669"/>
<path d="M388.04 101.668C388.04 101.668 382.502 102.019 372.321 102.051C362.109 102.051 356.57 101.668 356.57 101.668C364.862 113.184 379.748 113.184 388.04 101.668Z" fill="#B55151"/>
<path d="M372.322 105.305C377.828 105.305 382.246 105.081 385.223 104.89C386.216 103.933 387.176 102.88 388.041 101.668C388.041 101.668 382.502 102.019 372.29 102.051C362.077 102.051 356.539 101.668 356.539 101.668C357.403 102.88 358.364 103.933 359.356 104.89C362.366 105.081 366.816 105.305 372.322 105.305Z" fill="white"/>
<path d="M372.32 106.707C368.766 106.707 365.725 107.154 363.164 107.728C368.927 111.109 375.681 111.109 381.444 107.728C378.851 107.186 375.842 106.707 372.32 106.707Z" fill="#FFA1A3"/>
<path d="M372.289 367.526C372.353 369.281 372.417 371.003 372.514 372.726C372.642 372.694 372.738 372.694 372.738 372.694C372.738 372.694 414.099 382.487 442.08 368.387C441.92 359.647 441.727 351.64 441.567 344.749L440.703 321.047H303.908L303.043 344.749C302.883 351.48 302.691 359.359 302.531 367.909C328.462 381.562 366.687 373.97 372.065 372.821C372.129 371.099 372.225 369.312 372.289 367.526Z" fill="#C4C4C4"/>
<path d="M448.897 363.668C448.897 363.668 466.184 374.386 483.152 371.005C483.152 371.005 500.983 308.352 493.332 255.876C485.681 203.399 465.288 179.697 452.546 161.897C439.805 144.128 393.065 136.504 393.065 136.504C393.065 136.504 391.368 212.682 372.672 252.494V364.242C372.672 364.242 422.806 376.109 449.985 354.927C449.985 354.927 441.342 234.407 434.555 220.881C434.587 220.849 463.335 277.313 448.897 363.668Z" fill="#292229"/>
<path d="M412.656 140.172L393.127 136.504C393.127 136.504 391.43 212.682 372.734 252.494V265.35C394.376 246.369 408.43 219.892 408.43 219.892L398.666 204.644L420.755 185.184L412.656 140.172Z" fill="#332A33"/>
<path d="M433.02 296.516H394.508V306.118H433.02V296.516Z" fill="#332A33"/>
<path d="M372.705 364.242V252.494C354.009 212.714 352.312 136.504 352.312 136.504C352.312 136.504 308.037 145.436 291.134 159.345C281.37 167.384 270.773 177.241 272.854 185.152C277.624 203.272 310.79 220.817 310.79 220.817C304.003 234.375 295.36 354.863 295.36 354.863C322.604 376.077 372.705 364.242 372.705 364.242Z" fill="#292229"/>
<path d="M372.708 265.35V252.494C354.011 212.714 352.315 136.504 352.315 136.504L332.786 140.172L324.719 185.184L346.808 204.644L337.044 219.892C337.044 219.892 351.098 246.369 372.708 265.35Z" fill="#332A33"/>
<path d="M350.903 296.516H312.391V306.118H350.903V296.516Z" fill="#332A33"/>
<path d="M320.555 109.1C320.426 106.261 319.978 82.7186 317.545 80.8046L313.191 72.3828C313.191 72.3828 304.74 77.2317 303.203 79.05C299.521 83.4204 298.817 86.3553 298.401 94.1709C297.953 102.369 296.064 104.283 294.367 106.867C294.911 107.346 308.357 118.256 308.517 118.288C314.12 119.021 320.779 113.854 320.555 109.1Z" fill="#8A4F16"/>
<path d="M320.364 121.189C322.253 121.189 323.79 119.626 323.79 117.744L323.438 48.7747C323.438 46.8925 321.869 45.3613 319.98 45.3613C318.091 45.3613 316.555 46.9244 316.555 48.8066L316.907 117.807C316.907 119.69 318.476 121.189 320.364 121.189Z" fill="#F1F1F1"/>
<path d="M320.106 69.3507C320.714 69.3507 321.226 68.8403 321.226 68.2342L321.194 59.1106C321.194 58.5045 320.682 57.9941 320.074 57.9941C319.465 57.9941 318.953 58.5045 318.953 59.1106L318.985 68.2342C318.985 68.8403 319.465 69.3507 320.106 69.3507Z" fill="#FEFEFE"/>
<path d="M320.141 79.2101C320.749 79.2101 321.261 78.6997 321.261 78.0936L321.229 72.9895C321.229 72.3834 320.717 71.873 320.109 71.873C319.5 71.873 318.988 72.3834 318.988 72.9895L319.02 78.0936C319.02 78.7316 319.533 79.2101 320.141 79.2101Z" fill="#FEFEFE"/>
<path d="M311.72 82.4625C312.649 82.622 313.513 82.4306 314.217 82.0159L325.134 74.7426C327.471 73.1795 327.727 69.8618 325.678 67.9478C324.206 66.5761 321.965 66.4166 320.268 67.5331L308.999 75.1573C308.135 75.7315 307.654 76.7204 307.75 77.8369L307.782 78.3793C307.91 80.3252 309.639 82.1116 311.72 82.4625Z" fill="#8A4F16"/>
<path d="M313.353 92.8614L326.543 85.3967C328.784 84.1207 329.488 81.2815 328.143 79.1123C326.863 77.0706 324.238 76.4007 322.157 77.5492L310.344 83.9931C309.095 84.6311 308.135 85.7157 307.59 87.0874C306.822 89.0653 307.911 91.6492 309.992 92.7338C311.112 93.3399 312.361 93.3718 313.353 92.8614Z" fill="#8A4F16"/>
<path d="M313.383 103.486L326.732 96.3399C328.973 95.1277 329.774 92.2885 328.493 90.0874C327.277 88.0458 324.651 87.2801 322.539 88.3967L310.597 94.5854C309.317 95.1915 308.356 96.2442 307.78 97.6159C306.98 99.5938 308.004 102.178 310.053 103.326C311.142 103.932 312.39 103.996 313.383 103.486Z" fill="#8A4F16"/>
<path d="M318.218 110.215L320.939 109.034L326.702 105.908C327.342 105.557 327.822 104.983 328.11 104.217C328.751 102.463 328.11 100.357 326.638 99.4643C325.613 98.8263 324.429 98.6987 323.34 99.1453L314.985 102.654C313.064 103.452 312.039 105.589 312.648 107.599C313.384 109.96 315.977 111.172 318.218 110.215Z" fill="#8A4F16"/>
<path d="M295.616 101.38C282.106 113.661 233.381 160.204 237.223 194.912C238.599 207.29 249.548 219.731 274.743 220.305C303.331 220.943 321.195 216.126 325.421 210.416C330.351 203.781 309.542 197.975 302.851 194.625C296.192 191.276 283.579 181.578 283.067 174.145C282.554 166.712 312.583 119.531 312.583 119.531C307.525 100.391 295.616 101.38 295.616 101.38Z" fill="#292229"/>
</g>
</g>
<defs>
<clipPath id="clip0_2001_24678">
<rect width="703" height="639" fill="white"/>
</clipPath>
</defs>
</svg>
