<svg width="16" height="17" viewBox="0 0 16 17" fill="none" xmlns="http://www.w3.org/2000/svg">
<g clip-path="url(#clip0_224_14891)">
<path d="M12.6673 9.83333C13.6607 8.86 14.6673 7.69333 14.6673 6.16667C14.6673 5.19421 14.281 4.26158 13.5934 3.57394C12.9057 2.88631 11.9731 2.5 11.0007 2.5C9.82732 2.5 9.00065 2.83333 8.00065 3.83333C7.00065 2.83333 6.17398 2.5 5.00065 2.5C4.02819 2.5 3.09556 2.88631 2.40793 3.57394C1.72029 4.26158 1.33398 5.19421 1.33398 6.16667C1.33398 7.7 2.33398 8.86667 3.33398 9.83333L8.00065 14.5L12.6673 9.83333Z" stroke="#020817" stroke-width="1.33333" stroke-linecap="round" stroke-linejoin="round"/>
</g>
<defs>
<clipPath id="clip0_224_14891">
<rect width="16" height="16" fill="white" transform="translate(0 0.5)"/>
</clipPath>
</defs>
</svg>
