<svg width="90" height="90" viewBox="0 0 90 90" fill="none" xmlns="http://www.w3.org/2000/svg">
<circle cx="45" cy="45" r="45" fill="#0CA4C4"/>
<path fill-rule="evenodd" clip-rule="evenodd" d="M41.0978 32.8976L42.3065 48.506L27.6804 50.6675C24.9508 51.0709 22.5 48.9556 22.5 46.1964C22.5 44.5782 23.3652 43.0834 24.7685 42.2774L41.0978 32.8976ZM39.1295 36.623L25.8891 44.2284C25.1845 44.6332 24.75 45.3838 24.75 46.1964C24.75 47.582 25.9807 48.6442 27.3514 48.4417L39.9012 46.587L39.1295 36.623Z" fill="white"/>
<path d="M25.8891 44.2284L39.1295 36.623L39.9012 46.587L27.3514 48.4417C25.9807 48.6442 24.75 47.582 24.75 46.1964C24.75 45.3838 25.1845 44.6332 25.8891 44.2284Z" fill="white"/>
<path fill-rule="evenodd" clip-rule="evenodd" d="M48.9022 32.8975L47.6935 48.5059L62.3196 50.6674C65.0492 51.0708 67.5 48.9555 67.5 46.1963C67.5 44.578 66.6348 43.0833 65.2315 42.2772L48.9022 32.8975ZM50.8704 36.6228L64.1108 44.2283C64.8155 44.633 65.25 45.3837 65.25 46.1963C65.25 47.5819 64.0193 48.6441 62.6486 48.4416L50.0988 46.5869L50.8704 36.6228Z" fill="white"/>
<path d="M64.1108 44.2283L50.8704 36.6228L50.0988 46.5869L62.6486 48.4416C64.0193 48.6441 65.25 47.5819 65.25 46.1963C65.25 45.3837 64.8155 44.633 64.1108 44.2283Z" fill="white"/>
<path fill-rule="evenodd" clip-rule="evenodd" d="M42.4556 51.9268L43.104 60.3004L36.1663 61.3257C34.5968 61.5576 33.1875 60.3413 33.1875 58.7547C33.1875 57.8242 33.685 56.9647 34.4919 56.5012L42.4556 51.9268ZM40.4873 55.6521L35.6126 58.4522C35.5043 58.5144 35.4375 58.6298 35.4375 58.7547C35.4375 58.9677 35.6267 59.131 35.8374 59.0998L40.6987 58.3814L40.4873 55.6521Z" fill="white"/>
<path d="M35.6126 58.4522L40.4873 55.6521L40.6987 58.3814L35.8374 59.0998C35.6267 59.131 35.4375 58.9677 35.4375 58.7547C35.4375 58.6298 35.5043 58.5144 35.6126 58.4522Z" fill="white"/>
<path fill-rule="evenodd" clip-rule="evenodd" d="M47.5346 51.9268L46.8861 60.3004L53.8239 61.3257C55.3934 61.5576 56.8027 60.3413 56.8027 58.7547C56.8027 57.8242 56.3052 56.9647 55.4983 56.5012L47.5346 51.9268ZM49.5028 55.6521L54.3776 58.4522C54.4859 58.5145 54.5527 58.6298 54.5527 58.7547C54.5527 58.9677 54.3635 59.131 54.1528 59.0999L49.2915 58.3814L49.5028 55.6521Z" fill="white"/>
<path d="M54.3776 58.4522L49.5028 55.6521L49.2915 58.3814L54.1528 59.0999C54.3635 59.131 54.5527 58.9677 54.5527 58.7547C54.5527 58.6298 54.4859 58.5145 54.3776 58.4522Z" fill="white"/>
<path fill-rule="evenodd" clip-rule="evenodd" d="M38.8284 30.6078C38.5742 27.0325 41.4061 23.9922 44.9904 23.9922C48.5746 23.9922 51.4065 27.0325 51.1523 30.6078L49.1554 58.6981C49 60.8838 47.1816 62.5775 44.9904 62.5775C42.7992 62.5775 40.9807 60.8838 40.8253 58.6981L38.8284 30.6078ZM44.9904 26.2422C42.7116 26.2422 40.9111 28.1752 41.0727 30.4482L43.0696 58.5385C43.1413 59.5464 43.9799 60.3275 44.9904 60.3275C46.0008 60.3275 46.8394 59.5465 46.9111 58.5385L48.908 30.4482C49.0696 28.1752 47.2691 26.2422 44.9904 26.2422Z" fill="white"/>
<path fill-rule="evenodd" clip-rule="evenodd" d="M45 54.3438C45.6213 54.3438 46.125 54.8474 46.125 55.4688V66.4899C46.125 67.1112 45.6213 67.6149 45 67.6149C44.3787 67.6149 43.875 67.1112 43.875 66.4899V55.4688C43.875 54.8474 44.3787 54.3438 45 54.3438Z" fill="white"/>
<path fill-rule="evenodd" clip-rule="evenodd" d="M45.5146 31.1293C45.2322 30.8447 44.7723 30.8437 44.4888 31.1272L43.3544 32.2616C42.9999 32.6161 42.4251 32.6161 42.0706 32.2616C41.7161 31.9071 41.7161 31.3323 42.0706 30.9778L43.205 29.8434C44.1995 28.8489 45.813 28.8521 46.8035 29.8506L47.9242 30.9804C48.2773 31.3363 48.275 31.9111 47.9191 32.2642C47.5632 32.6173 46.9884 32.615 46.6353 32.259L45.5146 31.1293Z" fill="white"/>
</svg>
