<svg width="90" height="90" viewBox="0 0 90 90" fill="none" xmlns="http://www.w3.org/2000/svg">
<circle cx="45" cy="45" r="45" fill="#1BB2F1"/>
<path fill-rule="evenodd" clip-rule="evenodd" d="M40.6412 25.6712C39.921 25.6712 39.3372 26.255 39.3372 26.9751V29.5282C39.3372 30.1822 38.807 30.7124 38.153 30.7124C37.4989 30.7124 36.9688 30.1822 36.9688 29.5282V26.9751C36.9688 24.9469 38.6129 23.3027 40.6412 23.3027H49.3639C51.3921 23.3027 53.0363 24.9469 53.0363 26.9751V29.5282C53.0363 30.1822 52.5061 30.7124 51.8521 30.7124C51.198 30.7124 50.6678 30.1822 50.6678 29.5282V26.9751C50.6678 26.255 50.084 25.6712 49.3639 25.6712H40.6412Z" fill="white"/>
<path fill-rule="evenodd" clip-rule="evenodd" d="M35.692 63.3037C36.346 63.3037 36.8762 63.8339 36.8762 64.4879V67.1181C36.8762 67.7722 36.346 68.3024 35.692 68.3024C35.038 68.3024 34.5078 67.7722 34.5078 67.1181V64.4879C34.5078 63.8339 35.038 63.3037 35.692 63.3037Z" fill="white"/>
<path fill-rule="evenodd" clip-rule="evenodd" d="M54.3228 63.3037C54.9768 63.3037 55.507 63.8339 55.507 64.4879V67.1181C55.507 67.7722 54.9768 68.3024 54.3228 68.3024C53.6688 68.3024 53.1386 67.7722 53.1386 67.1181V64.4879C53.1386 63.8339 53.6688 63.3037 54.3228 63.3037Z" fill="white"/>
<path fill-rule="evenodd" clip-rule="evenodd" d="M30.1719 32.9251C30.1719 30.4553 32.1741 28.4531 34.6439 28.4531H55.3569C57.8267 28.4531 59.8289 30.4553 59.8289 32.9251V60.7617C59.8289 63.2315 57.8267 65.2337 55.3569 65.2337H34.6439C32.1741 65.2337 30.1719 63.2315 30.1719 60.7617V32.9251ZM34.6439 30.8215C33.4821 30.8215 32.5403 31.7633 32.5403 32.9251V60.7617C32.5403 61.9234 33.4821 62.8652 34.6439 62.8652H55.3569C56.5187 62.8652 57.4605 61.9234 57.4605 60.7617V32.9251C57.4605 31.7633 56.5187 30.8215 55.3569 30.8215H34.6439Z" fill="white"/>
<path fill-rule="evenodd" clip-rule="evenodd" d="M38.7933 42.2627C37.0521 42.2627 35.6406 43.6742 35.6406 45.4154V62.0819C35.6406 63.823 37.0521 65.2346 38.7933 65.2346H51.1948C52.9359 65.2346 54.3474 63.823 54.3474 62.0819V45.4154C54.3474 43.6742 52.9359 42.2627 51.1948 42.2627H38.7933ZM40.2268 47.0848C39.5727 47.0848 39.0425 47.615 39.0425 48.269C39.0425 48.923 39.5727 49.4532 40.2268 49.4532H47.0428V50.4609C47.0428 51.1149 47.573 51.6451 48.227 51.6451C48.8811 51.6451 49.4112 51.1149 49.4112 50.4609V49.4532H49.7613C50.4153 49.4532 50.9455 48.923 50.9455 48.269C50.9455 47.615 50.4153 47.0848 49.7613 47.0848H40.2268Z" fill="white"/>
<path fill-rule="evenodd" clip-rule="evenodd" d="M36.875 36.4323C36.875 35.7782 37.4052 35.248 38.0592 35.248H51.9227C52.5767 35.248 53.1069 35.7782 53.1069 36.4323C53.1069 37.0863 52.5767 37.6165 51.9227 37.6165H50.8055V38.5145C50.8055 39.1685 50.2753 39.6987 49.6212 39.6987C48.9672 39.6987 48.437 39.1685 48.437 38.5145V37.6165H38.0592C37.4052 37.6165 36.875 37.0863 36.875 36.4323Z" fill="white"/>
</svg>
