<svg width="90" height="90" viewBox="0 0 90 90" fill="none" xmlns="http://www.w3.org/2000/svg">
<circle cx="45" cy="45" r="45" fill="#32245B"/>
<path fill-rule="evenodd" clip-rule="evenodd" d="M25.9375 59.9915C25.9375 58.1317 27.4452 56.624 29.305 56.624H31.1276C32.9874 56.624 34.4951 58.1317 34.4951 59.9916V62.902C34.4951 64.7619 32.9875 66.2696 31.1276 66.2696H29.305C27.4452 66.2696 25.9375 64.7619 25.9375 62.902V59.9915ZM29.305 58.9933C28.7537 58.9933 28.3068 59.4403 28.3068 59.9915V62.902C28.3068 63.4533 28.7537 63.9002 29.305 63.9002H31.1276C31.6789 63.9002 32.1258 63.4533 32.1258 62.902V59.9916C32.1258 59.4403 31.6789 58.9933 31.1276 58.9933H29.305Z" fill="white"/>
<path fill-rule="evenodd" clip-rule="evenodd" d="M55.5041 59.9915C55.5041 58.1317 57.0118 56.624 58.8716 56.624H60.6942C62.5541 56.624 64.0617 58.1317 64.0617 59.9916V62.902C64.0617 64.7619 62.5541 66.2696 60.6942 66.2696H58.8716C57.0118 66.2696 55.5041 64.7619 55.5041 62.902V59.9915ZM58.8716 58.9933C58.3203 58.9933 57.8734 59.4403 57.8734 59.9915V62.902C57.8734 63.4533 58.3203 63.9002 58.8716 63.9002H60.6942C61.2455 63.9002 61.6924 63.4533 61.6924 62.902V59.9916C61.6924 59.4403 61.2455 58.9933 60.6942 58.9933H58.8716Z" fill="white"/>
<path d="M28.3068 59.9915C28.3068 59.4403 28.7537 58.9933 29.305 58.9933H31.1276C31.6789 58.9933 32.1258 59.4403 32.1258 59.9916V62.902C32.1258 63.4533 31.6789 63.9002 31.1276 63.9002H29.305C28.7537 63.9002 28.3068 63.4533 28.3068 62.902V59.9915Z" fill="white"/>
<path d="M57.8734 59.9915C57.8734 59.4403 58.3203 58.9933 58.8716 58.9933H60.6942C61.2455 58.9933 61.6924 59.4403 61.6924 59.9916V62.902C61.6924 63.4533 61.2455 63.9002 60.6942 63.9002H58.8716C58.3203 63.9002 57.8734 63.4533 57.8734 62.902V59.9915Z" fill="white"/>
<path fill-rule="evenodd" clip-rule="evenodd" d="M22.5 37.0722C22.5 35.0114 24.1706 33.3408 26.2313 33.3408H29.6104C30.8693 33.3408 31.7848 34.5362 31.4566 35.7516L30.4743 39.3897C30.2491 40.2239 29.4923 40.8035 28.6282 40.8035H26.2313C24.1706 40.8035 22.5 39.1329 22.5 37.0722ZM26.2313 35.7101C25.4791 35.7101 24.8693 36.3199 24.8693 37.0722C24.8693 37.8244 25.4791 38.4342 26.2313 38.4342H28.2782L29.0136 35.7101H26.2313Z" fill="white"/>
<path d="M24.8693 37.0722C24.8693 36.3199 25.4791 35.7101 26.2313 35.7101H29.0136L28.2782 38.4342H26.2313C25.4791 38.4342 24.8693 37.8244 24.8693 37.0722Z" fill="white"/>
<path fill-rule="evenodd" clip-rule="evenodd" d="M67.5 37.0722C67.5 35.0114 65.8294 33.3408 63.7687 33.3408H60.3896C59.1307 33.3408 58.2152 34.5362 58.5434 35.7516L59.5257 39.3897C59.7509 40.2239 60.5077 40.8035 61.3718 40.8035H63.7687C65.8294 40.8035 67.5 39.1329 67.5 37.0722ZM63.7687 35.7101C64.5209 35.7101 65.1307 36.3199 65.1307 37.0722C65.1307 37.8244 64.5209 38.4342 63.7687 38.4342H61.7218L60.9864 35.7101H63.7687Z" fill="white"/>
<path d="M65.1307 37.0722C65.1307 36.3199 64.5209 35.7101 63.7687 35.7101H60.9864L61.7218 38.4342H63.7687C64.5209 38.4342 65.1307 37.8244 65.1307 37.0722Z" fill="white"/>
<path fill-rule="evenodd" clip-rule="evenodd" d="M31.4713 28.0474C31.7848 26.4717 33.1676 25.3369 34.7741 25.3369H55.9446C57.5511 25.3369 58.934 26.4717 59.2474 28.0474L61.1293 37.5064C61.3271 38.5008 61.0673 39.463 60.5107 40.1971C59.9014 41.0007 58.9363 41.531 57.8265 41.531H32.8923C31.7325 41.531 30.7308 40.9519 30.1279 40.0869C29.6269 39.368 29.4014 38.4518 29.5895 37.5064L31.4713 28.0474ZM34.7741 27.7062C34.2979 27.7062 33.888 28.0426 33.7951 28.5097L31.9133 37.9687C31.7904 38.5862 32.2628 39.1617 32.8923 39.1617H57.8265C58.456 39.1617 58.9283 38.5861 58.8055 37.9688L56.9236 28.5097C56.8307 28.0426 56.4208 27.7062 55.9446 27.7062H34.7741Z" fill="white"/>
<path fill-rule="evenodd" clip-rule="evenodd" d="M31.8005 38.2285L30.1279 40.0869L28.0999 42.3403C27.3813 43.1388 26.7875 44.0296 26.3301 44.9827C25.9674 45.7383 25.6904 46.5331 25.5049 47.352C25.3226 48.157 25.2287 48.9853 25.2287 49.8226V50.8036V53.173V55.6265C25.2287 56.1778 25.6756 56.6247 26.2269 56.6247H63.8042C64.3555 56.6247 64.8024 56.1778 64.8024 55.6265V53.1577V50.8189V49.4571C64.8024 48.7465 64.7347 48.0418 64.6025 47.352C64.4463 46.5366 64.1998 45.7419 63.8684 44.9827C63.469 44.0676 62.9462 43.2039 62.309 42.4172L60.5107 40.1971L58.8782 38.1816L60.7193 36.6903L64.1501 40.9259C66.105 43.3394 67.1717 46.3512 67.1717 49.4571V55.6265C67.1717 57.4863 65.6641 58.994 63.8042 58.994H26.2269C24.3671 58.994 22.8594 57.4863 22.8594 55.6265V49.8226C22.8594 46.4742 24.0988 43.2442 26.3388 40.7554L30.0394 36.6435L31.8005 38.2285Z" fill="white"/>
<path fill-rule="evenodd" clip-rule="evenodd" d="M23.8908 46.1673C23.8908 45.5131 24.4212 44.9827 25.0754 44.9827H26.3301H31.3214C33.8647 44.9827 35.9481 46.9512 36.1312 49.4477C36.849 50.5176 38.0565 51.1675 39.3567 51.1675H50.3306C51.6309 51.1675 52.8383 50.5176 53.5562 49.4477C53.7392 46.9512 55.8227 44.9827 58.3659 44.9827H63.8684H64.6119C65.2662 44.9827 65.7966 45.5131 65.7966 46.1673C65.7966 46.8216 65.2662 47.352 64.6119 47.352H64.6025H58.3659C57.0109 47.352 55.9125 48.4504 55.9125 49.8054C55.9125 50.3567 56.3594 50.8036 56.9107 50.8036H64.6119C64.6768 50.8036 64.7404 50.8089 64.8024 50.8189C65.3661 50.91 65.7966 51.3989 65.7966 51.9883C65.7966 52.5777 65.3661 53.0666 64.8024 53.1577C64.7404 53.1678 64.6768 53.173 64.6119 53.173H56.9107C55.9081 53.173 55.0079 52.7349 54.391 52.0396C53.2757 52.9913 51.8421 53.5368 50.3306 53.5368H39.3567C37.8452 53.5368 36.4116 52.9913 35.2964 52.0396C34.6795 52.7349 33.7793 53.173 32.7767 53.173H25.2287H25.0754C24.4212 53.173 23.8908 52.6426 23.8908 51.9883C23.8908 51.334 24.4212 50.8036 25.0754 50.8036H25.2287H32.7767C33.328 50.8036 33.7749 50.3567 33.7749 49.8054C33.7749 48.4504 32.6764 47.352 31.3214 47.352H25.5049H25.0754C24.4212 47.352 23.8908 46.8216 23.8908 46.1673Z" fill="white"/>
<path d="M57.8265 41.531H32.8923C31.7325 41.531 30.7308 40.9519 30.1279 40.0869L28.0999 42.3403C27.3813 43.1388 26.7875 44.0296 26.3301 44.9827H31.3214C33.8647 44.9827 35.9481 46.9512 36.1312 49.4477C36.849 50.5176 38.0565 51.1675 39.3567 51.1675H50.3306C51.6309 51.1675 52.8383 50.5176 53.5562 49.4477C53.7392 46.9512 55.8227 44.9827 58.3659 44.9827H63.8684C63.469 44.0676 62.9462 43.2039 62.309 42.4172L60.5107 40.1971C59.9014 41.0007 58.9363 41.531 57.8265 41.531Z" fill="white"/>
<path fill-rule="evenodd" clip-rule="evenodd" d="M48.0741 29.5327C48.4202 30.088 48.2507 30.8186 47.6955 31.1648L39.1006 36.5227C38.5454 36.8688 37.8147 36.6993 37.4686 36.1441C37.1224 35.5889 37.292 34.8582 37.8472 34.5121L46.4421 29.1541C46.9973 28.808 47.728 28.9775 48.0741 29.5327ZM52.5426 32.2103C52.8895 32.7651 52.721 33.496 52.1662 33.8429L45.9779 37.7125C45.4231 38.0594 44.6922 37.8909 44.3453 37.3361C43.9985 36.7814 44.167 36.0505 44.7217 35.7036L50.91 31.834C51.4648 31.4871 52.1957 31.6556 52.5426 32.2103Z" fill="white"/>
</svg>
