<svg width="90" height="90" viewBox="0 0 90 90" fill="none" xmlns="http://www.w3.org/2000/svg">
<circle cx="45" cy="45" r="45" fill="#6C16E5"/>
<path fill-rule="evenodd" clip-rule="evenodd" d="M33.9184 40.1071C35.3162 39.9504 36.7586 39.5048 38.1736 38.8267C37.0632 37.4465 36.1381 36.0905 35.4877 34.7924C35.2132 34.2446 34.9802 33.6926 34.8029 33.1413C33.8753 35.352 33.5802 37.7658 33.9184 40.1071ZM35.9384 27.2607C32.0399 31.1591 30.6534 36.6174 31.774 41.622C32.3946 44.3932 33.7838 47.0275 35.9384 49.1821C38.093 51.3367 40.7273 52.7259 43.4985 53.3465C48.5031 54.4671 53.9614 53.0806 57.8598 49.1821C61.7583 45.2836 63.1448 39.8253 62.0242 34.8208C61.4037 32.0496 60.0144 29.4152 57.8598 27.2607C55.7052 25.1061 53.0709 23.7168 50.2997 23.0963C45.2951 21.9757 39.8369 23.3622 35.9384 27.2607ZM37.6247 28.9469C37.062 29.5095 36.8181 30.1378 36.8094 30.8726C36.8001 31.649 37.0559 32.5988 37.6198 33.7242C38.2255 34.9331 39.1369 36.2483 40.2781 37.6347C41.4559 36.8626 42.5868 35.9395 43.6252 34.9011C44.6687 33.8576 45.5935 32.723 46.364 31.5434C44.9755 30.4117 43.6555 29.511 42.4418 28.9146C41.3099 28.3584 40.3515 28.1079 39.5669 28.1217C38.8222 28.1347 38.1878 28.3838 37.6247 28.9469ZM47.5502 29.4367C46.1639 28.3328 44.7999 27.4162 43.4935 26.7743C42.9506 26.5075 42.404 26.2812 41.8583 26.1087C44.0606 25.1931 46.4623 24.9039 48.792 25.2417C48.6461 26.6169 48.214 28.0386 47.5502 29.4367ZM48.1807 33.1171C47.344 34.3573 46.3718 35.527 45.3114 36.5874C44.257 37.6418 43.0935 38.61 41.859 39.446C42.4457 40.0845 43.0711 40.7341 43.7287 41.3918C44.3935 42.0566 45.0501 42.6885 45.6954 43.2806C46.5326 42.0478 47.5013 40.8854 48.5553 39.8313C49.6153 38.7713 50.784 37.7987 52.0225 36.9607C51.4309 36.3126 50.7987 35.6538 50.1327 34.9878C49.4739 34.3289 48.8221 33.7032 48.1807 33.1171ZM54.1108 35.7144C53.3905 34.9101 52.6211 34.1036 51.819 33.3015C51.0229 32.5054 50.2223 31.7414 49.424 31.0256C50.295 29.3389 50.8968 27.5699 51.1272 25.8021C52.9705 26.428 54.7023 27.4756 56.1736 28.9469C57.6463 30.4197 58.6946 32.1534 59.3202 33.9987C57.5583 34.2349 55.794 34.8407 54.1108 35.7144ZM53.5945 38.7779C52.4174 39.5496 51.2844 40.4748 50.2416 41.5176C49.2039 42.5553 48.2805 43.6846 47.5072 44.8599C48.8858 45.993 50.1936 46.8981 51.3963 47.5007C52.5217 48.0646 53.4715 48.3204 54.2479 48.3111C54.9827 48.3024 55.611 48.0585 56.1736 47.4958C56.7367 46.9327 56.9858 46.2983 56.9988 45.5536C57.0126 44.769 56.7621 43.8106 56.2059 42.6787C55.6126 41.4712 54.7181 40.1586 53.5945 38.7779ZM59.0118 43.2622C58.8393 42.7165 58.613 42.1699 58.3462 41.627C57.707 40.3261 56.7954 38.968 55.6976 37.5877C57.0922 36.9209 58.5095 36.4846 59.8794 36.333C60.2163 38.6613 59.9268 41.0613 59.0118 43.2622ZM51.9792 50.3176C51.4279 50.1403 50.8759 49.9073 50.3281 49.6328C49.0355 48.9851 47.6854 48.065 46.3112 46.9609C45.6302 48.3724 45.1804 49.8102 45.0179 51.2027C47.3578 51.5399 49.7699 51.2446 51.9792 50.3176ZM42.6847 50.6453C42.9321 48.8577 43.5532 47.0694 44.444 45.3663C43.6444 44.6457 42.8417 43.8773 42.0424 43.0781C41.2491 42.2847 40.4862 41.4881 39.7703 40.6943C38.0635 41.5826 36.2704 42.1995 34.477 42.4411C35.1025 44.2876 36.1511 46.0223 37.6247 47.4958C39.0996 48.9708 40.8363 50.02 42.6847 50.6453Z" fill="#E5ECF6"/>
<path d="M38.1736 38.8267C36.7586 39.5048 35.3162 39.9504 33.9184 40.1071C33.5802 37.7658 33.8753 35.352 34.8029 33.1413C34.9802 33.6926 35.2132 34.2446 35.4877 34.7924C36.1381 36.0905 37.0632 37.4465 38.1736 38.8267Z" fill="#E5ECF6"/>
<path d="M44.444 45.3663C43.5532 47.0694 42.9321 48.8577 42.6847 50.6453C40.8363 50.02 39.0996 48.9708 37.6247 47.4958C36.1511 46.0223 35.1025 44.2876 34.477 42.4411C36.2704 42.1995 38.0635 41.5826 39.7703 40.6943C40.4862 41.4881 41.2491 42.2847 42.0424 43.0781C42.8417 43.8773 43.6444 44.6457 44.444 45.3663Z" fill="#E5ECF6"/>
<path d="M50.3281 49.6328C50.8759 49.9073 51.4279 50.1403 51.9792 50.3176C49.7699 51.2446 47.3578 51.5399 45.0179 51.2027C45.1804 49.8102 45.6302 48.3724 46.3112 46.9609C47.6854 48.065 49.0355 48.9851 50.3281 49.6328Z" fill="#E5ECF6"/>
<path fill-rule="evenodd" clip-rule="evenodd" d="M33.8167 26.9306L34.0178 27.1317C34.4834 27.5973 35.2384 27.5973 35.704 27.1317C36.1697 26.666 36.1697 25.9111 35.704 25.4454L35.3301 25.0715C34.4908 24.2321 33.0717 24.1914 32.222 25.1347C25.2138 32.9158 25.4548 44.9094 32.9452 52.3998C36.2315 55.6861 40.3873 57.5776 44.6715 58.0727V62.6155C44.6715 63.274 45.2054 63.8079 45.8639 63.8079C46.5224 63.8079 47.0563 63.2741 47.0563 62.6155V58.2041C51.7669 58.1809 56.4743 56.4879 60.2103 53.1229C61.1538 52.2731 61.1127 50.8541 60.2734 50.0148L59.6694 49.4108C59.2037 48.9451 58.4488 48.9451 57.9831 49.4108C57.5175 49.8764 57.5175 50.6314 57.9831 51.097L58.4144 51.5283C54.8665 54.6275 50.3622 56.0488 45.9336 55.7896C41.8184 55.5488 37.7754 53.8574 34.6315 50.7135C28.1067 44.1888 27.8351 33.778 33.8167 26.9306Z" fill="#E5ECF6"/>
<path fill-rule="evenodd" clip-rule="evenodd" d="M45.7734 64.0794L39.277 65.4246H52.3745L45.7734 64.0794ZM45.3309 61.7357C45.6203 61.6758 45.9188 61.6753 46.2084 61.7343L54.8353 63.4923C57.4112 64.0172 57.0287 67.8093 54.3999 67.8093H37.2831C34.6584 67.8093 34.2708 64.0259 36.8409 63.4937L45.3309 61.7357Z" fill="#E5ECF6"/>
</svg>
