<svg width="61" height="61" viewBox="0 0 61 61" fill="none" xmlns="http://www.w3.org/2000/svg">
<g clip-path="url(#clip0_297_10219)">
<path d="M30.9844 59.25C47.0006 59.25 59.9844 46.2663 59.9844 30.25C59.9844 14.2337 47.0006 1.25 30.9844 1.25C14.9681 1.25 1.98438 14.2337 1.98438 30.25C1.98438 46.2663 14.9681 59.25 30.9844 59.25Z" stroke="white" stroke-width="2"/>
<mask id="mask0_297_10219" style="mask-type:luminance" maskUnits="userSpaceOnUse" x="22" y="20" width="21" height="21">
<path d="M42.9844 20.25H22.9844V40.25H42.9844V20.25Z" fill="white"/>
</mask>
<g mask="url(#mask0_297_10219)">
<path d="M40.3273 27.9422L28.5148 20.6607C27.6601 20.1346 26.6269 20.1127 25.7508 20.6022C24.8746 21.0916 24.3516 21.9831 24.3516 22.9866V37.4832C24.3516 39.0006 25.5742 40.2418 27.077 40.25C27.0811 40.25 27.0852 40.25 27.0892 40.25C27.5588 40.25 28.0482 40.1028 28.5053 39.8239C28.873 39.5995 28.9892 39.1196 28.7648 38.752C28.5405 38.3842 28.0605 38.2681 27.6929 38.4924C27.4791 38.6228 27.2703 38.6902 27.0854 38.6902C26.5184 38.6871 25.9113 38.2014 25.9113 37.4832V22.9867C25.9113 22.5561 26.1357 22.1738 26.5115 21.9639C26.8873 21.7539 27.3305 21.7633 27.6966 21.9887L39.5091 29.2702C39.8642 29.4888 40.0674 29.8533 40.0665 30.2702C40.0656 30.6871 39.861 31.0508 39.504 31.2687L30.9635 36.4979C30.5961 36.7228 30.4807 37.2029 30.7056 37.5702C30.9305 37.9376 31.4106 38.0531 31.7779 37.8281L40.3174 32.5995C41.1351 32.1007 41.6243 31.2312 41.6263 30.2734C41.6283 29.3156 41.1425 28.4441 40.3273 27.9422Z" fill="white"/>
</g>
</g>
<defs>
<clipPath id="clip0_297_10219">
<rect width="60" height="60" fill="white" transform="translate(0.984375 0.25)"/>
</clipPath>
</defs>
</svg>
