<svg width="48" height="48" viewBox="0 0 48 48" fill="none" xmlns="http://www.w3.org/2000/svg">
<path d="M44 30V18C44 8 40 4 30 4H18C8 4 4 8 4 18V30C4 40 8 44 18 44H30C40 44 44 40 44 30Z" stroke="url(#paint0_linear_572_1155)" stroke-width="1.5" stroke-linecap="round" stroke-linejoin="round"/>
<path d="M34 33.5H27.8L31.04 29.9199C32.64 28.1399 33.52 25.8801 33.52 23.5601C33.52 21.1601 32.52 18.86 30.74 17.16C28.96 15.46 26.54 14.5 24 14.5C21.48 14.5 19.06 15.46 17.26 17.16C15.48 18.86 14.48 21.1601 14.48 23.5601C14.48 25.9001 15.36 28.1599 16.96 29.9199L20.2 33.5H14" stroke="url(#paint1_linear_572_1155)" stroke-width="1.5" stroke-linecap="round" stroke-linejoin="round"/>
<defs>
<linearGradient id="paint0_linear_572_1155" x1="4" y1="24" x2="44" y2="24" gradientUnits="userSpaceOnUse">
<stop stop-color="#245BAA"/>
<stop offset="1" stop-color="#0CA4C4"/>
</linearGradient>
<linearGradient id="paint1_linear_572_1155" x1="14" y1="24" x2="34" y2="24" gradientUnits="userSpaceOnUse">
<stop stop-color="#245BAA"/>
<stop offset="1" stop-color="#0CA4C4"/>
</linearGradient>
</defs>
</svg>
