<svg width="32" height="32" viewBox="0 0 32 32" fill="none" xmlns="http://www.w3.org/2000/svg">
<path d="M15.9974 29.333C8.65073 29.333 2.66406 23.3463 2.66406 15.9997C2.66406 8.65301 8.65073 2.66634 15.9974 2.66634C23.3441 2.66634 29.3307 8.65301 29.3307 15.9997C29.3307 23.3463 23.3441 29.333 15.9974 29.333ZM21.4107 13.613C21.2107 13.413 20.9574 13.3197 20.7041 13.3197C20.4507 13.3197 20.1974 13.413 19.9974 13.613L15.9974 17.613L11.9974 13.613C11.6107 13.2263 10.9707 13.2263 10.5841 13.613C10.1974 13.9997 10.1974 14.6397 10.5841 15.0263L15.2907 19.733C15.6774 20.1197 16.3174 20.1197 16.7041 19.733L21.4107 15.0263C21.7974 14.6263 21.7974 13.9997 21.4107 13.613Z" fill="url(#paint0_linear_2004_240)"/>
<defs>
<linearGradient id="paint0_linear_2004_240" x1="2.66406" y1="15.9997" x2="29.3307" y2="15.9997" gradientUnits="userSpaceOnUse">
<stop stop-color="#245BAA"/>
<stop offset="1" stop-color="#633ED5"/>
</linearGradient>
</defs>
</svg>
