<svg width="90" height="90" viewBox="0 0 90 90" fill="none" xmlns="http://www.w3.org/2000/svg">
<circle cx="45" cy="45" r="45" fill="#9F4EC4"/>
<path fill-rule="evenodd" clip-rule="evenodd" d="M39.6465 30.1799C37.8105 30.1799 36.2356 31.7492 36.2356 33.7939V35.1536C36.2356 35.2844 36.3416 35.3905 36.4725 35.3905H37.9401V34.1756C37.9401 32.9681 38.8901 31.9009 40.1687 31.9009H49.7766C51.0552 31.9009 52.0052 32.9681 52.0052 34.1756V35.3905H53.5251C53.6559 35.3905 53.7619 35.2844 53.7619 35.1536V33.7939C53.7619 31.7492 52.1871 30.1799 50.351 30.1799H39.6465ZM33.8672 33.7939C33.8672 30.5387 36.4069 27.8115 39.6465 27.8115H50.351C53.5906 27.8115 56.1303 30.5387 56.1303 33.7939V35.1536C56.1303 36.5925 54.9639 37.7589 53.5251 37.7589H49.6368V34.2693H40.3085V37.7589H36.4725C35.0336 37.7589 33.8672 36.5925 33.8672 35.1536V33.7939Z" fill="white"/>
<path d="M36.2356 33.7939C36.2356 31.7492 37.8105 30.1799 39.6465 30.1799H50.351C52.1871 30.1799 53.7619 31.7492 53.7619 33.7939V35.1536C53.7619 35.2844 53.6559 35.3905 53.5251 35.3905H52.0052V34.1756C52.0052 32.9681 51.0552 31.9009 49.7766 31.9009H40.1687C38.8901 31.9009 37.9401 32.9681 37.9401 34.1756V35.3905H36.4725C36.3416 35.3905 36.2356 35.2844 36.2356 35.1536V33.7939Z" fill="white"/>
<path fill-rule="evenodd" clip-rule="evenodd" d="M26.8112 37.7366C25.7382 37.7366 24.8684 38.6064 24.8684 39.6794V59.4838C24.8684 60.5568 25.7382 61.4266 26.8112 61.4266H30.4934V37.7366H26.8112ZM32.8618 37.7366V61.4266H35.8224V37.7366H32.8618ZM38.1908 37.7366V61.4266H51.8092V37.7366H38.1908ZM54.1776 37.7366V61.4266H57.1382V37.7366H54.1776ZM59.5066 37.7366V61.4266H63.1888C64.2618 61.4266 65.1316 60.5568 65.1316 59.4838V39.6794C65.1316 38.6064 64.2618 37.7366 63.1888 37.7366H59.5066ZM22.5 39.6794C22.5 37.2984 24.4302 35.3682 26.8112 35.3682H63.1888C65.5698 35.3682 67.5 37.2984 67.5 39.6794V59.4838C67.5 61.8648 65.5698 63.795 63.1888 63.795H26.8112C24.4302 63.795 22.5 61.8648 22.5 59.4838V39.6794Z" fill="white"/>
<path d="M32.8618 61.4266V37.7366H35.8224V61.4266H32.8618Z" fill="white"/>
<path d="M54.1776 61.4266V37.7366H57.1382V61.4266H54.1776Z" fill="white"/>
</svg>
