<svg width="90" height="90" viewBox="0 0 90 90" fill="none" xmlns="http://www.w3.org/2000/svg">
<circle cx="45" cy="45" r="45" fill="#165FE5"/>
<path fill-rule="evenodd" clip-rule="evenodd" d="M45.5114 38.6646C45.5114 39.3351 44.9678 39.8787 44.2973 39.8787H28.675C28.0045 39.8787 27.4609 39.3351 27.4609 38.6646C27.4609 37.9941 28.0045 37.4505 28.675 37.4505H44.2973C44.9678 37.4505 45.5114 37.9941 45.5114 38.6646Z" fill="white"/>
<path fill-rule="evenodd" clip-rule="evenodd" d="M45.5114 32.9885C45.5114 33.659 44.9678 34.2026 44.2973 34.2026H28.675C28.0045 34.2026 27.4609 33.659 27.4609 32.9885C27.4609 32.318 28.0045 31.7744 28.675 31.7744H44.2973C44.9678 31.7744 45.5114 32.318 45.5114 32.9885Z" fill="white"/>
<path fill-rule="evenodd" clip-rule="evenodd" d="M45.5114 44.3409C45.5114 45.0114 44.9678 45.5549 44.2973 45.5549H28.675C28.0045 45.5549 27.4609 45.0114 27.4609 44.3409C27.4609 43.6703 28.0045 43.1268 28.675 43.1268H44.2973C44.9678 43.1268 45.5114 43.6703 45.5114 44.3409Z" fill="white"/>
<path fill-rule="evenodd" clip-rule="evenodd" d="M67.4176 56.4313C67.4176 57.1019 66.8741 57.6454 66.2035 57.6454H50.5813C49.9108 57.6454 49.3672 57.1019 49.3672 56.4313C49.3672 55.7608 49.9108 55.2173 50.5813 55.2173H66.2035C66.8741 55.2173 67.4176 55.7608 67.4176 56.4313Z" fill="white"/>
<path fill-rule="evenodd" clip-rule="evenodd" d="M67.4176 50.7551C67.4176 51.4256 66.8741 51.9692 66.2035 51.9692H50.5813C49.9108 51.9692 49.3672 51.4256 49.3672 50.7551C49.3672 50.0846 49.9108 49.541 50.5813 49.541H66.2035C66.8741 49.541 67.4176 50.0846 67.4176 50.7551Z" fill="white"/>
<path fill-rule="evenodd" clip-rule="evenodd" d="M22.5 30.5827C22.5 28.0313 24.5684 25.9629 27.1198 25.9629H45.9649C48.5164 25.9629 50.5848 28.0313 50.5848 30.5827V64.0378H24.8493C23.5518 64.0378 22.5 62.986 22.5 61.6885V30.5827ZM27.1198 28.3911C25.9094 28.3911 24.9282 29.3723 24.9282 30.5827V61.6097H48.1566V30.5827C48.1566 29.3723 47.1754 28.3911 45.9649 28.3911H27.1198Z" fill="white"/>
<path fill-rule="evenodd" clip-rule="evenodd" d="M48.1562 48.5192C48.1562 45.9678 50.2246 43.8994 52.7761 43.8994H62.8798C65.4312 43.8994 67.4996 45.9678 67.4996 48.5192V61.6881C67.4996 62.9856 66.4478 64.0374 65.1503 64.0374H48.1562V48.5192ZM52.7761 46.3276C51.5657 46.3276 50.5844 47.3088 50.5844 48.5192V61.6093H65.0714V48.5192C65.0714 47.3088 64.0902 46.3276 62.8798 46.3276H52.7761Z" fill="white"/>
<path fill-rule="evenodd" clip-rule="evenodd" d="M29.4219 56.4662C29.4219 52.4727 32.6593 49.2354 36.6528 49.2354C40.6463 49.2354 43.8837 52.4727 43.8837 56.4662V64.0377H29.4219V56.4662ZM36.6528 51.6635C34.0003 51.6635 31.85 53.8138 31.85 56.4662V61.6096H41.4555V56.4662C41.4555 53.8138 39.3052 51.6635 36.6528 51.6635Z" fill="white"/>
<path d="M31.85 56.4662C31.85 53.8138 34.0003 51.6635 36.6528 51.6635C39.3052 51.6635 41.4555 53.8138 41.4555 56.4662V61.6096H31.85V56.4662Z" fill="white"/>
</svg>
