<svg width="36" height="37" viewBox="0 0 36 37" fill="none" xmlns="http://www.w3.org/2000/svg">
<rect y="0.5" width="36" height="36" rx="18" fill="#DBEAFE"/>
<path d="M9.66797 16.0013C10.331 16.0013 10.9669 16.2647 11.4357 16.7335C11.9046 17.2024 12.168 17.8383 12.168 18.5013C12.168 19.1643 11.9046 19.8002 11.4357 20.2691C10.9669 20.7379 10.331 21.0013 9.66797 21.0013V22.668C9.66797 23.11 9.84356 23.5339 10.1561 23.8465C10.4687 24.159 10.8926 24.3346 11.3346 24.3346H24.668C25.11 24.3346 25.5339 24.159 25.8465 23.8465C26.159 23.5339 26.3346 23.11 26.3346 22.668V21.0013C25.6716 21.0013 25.0357 20.7379 24.5669 20.2691C24.098 19.8002 23.8346 19.1643 23.8346 18.5013C23.8346 17.8383 24.098 17.2024 24.5669 16.7335C25.0357 16.2647 25.6716 16.0013 26.3346 16.0013V14.3346C26.3346 13.8926 26.159 13.4687 25.8465 13.1561C25.5339 12.8436 25.11 12.668 24.668 12.668H11.3346C10.8926 12.668 10.4687 12.8436 10.1561 13.1561C9.84356 13.4687 9.66797 13.8926 9.66797 14.3346V16.0013Z" stroke="#2563EB" stroke-width="1.66667" stroke-linecap="round" stroke-linejoin="round"/>
<path d="M18.832 12.668V14.3346" stroke="#2563EB" stroke-width="1.66667" stroke-linecap="round" stroke-linejoin="round"/>
<path d="M18.832 22.668V24.3346" stroke="#2563EB" stroke-width="1.66667" stroke-linecap="round" stroke-linejoin="round"/>
<path d="M18.832 17.668V19.3346" stroke="#2563EB" stroke-width="1.66667" stroke-linecap="round" stroke-linejoin="round"/>
</svg>
