<svg width="36" height="37" viewBox="0 0 36 37" fill="none" xmlns="http://www.w3.org/2000/svg">
<rect y="0.5" width="36" height="36" rx="18" fill="#DBEAFE"/>
<path d="M13 26.8346V11.8346C13 11.3926 13.1756 10.9687 13.4882 10.6561C13.8007 10.3436 14.2246 10.168 14.6667 10.168H21.3333C21.7754 10.168 22.1993 10.3436 22.5118 10.6561C22.8244 10.9687 23 11.3926 23 11.8346V26.8346H13Z" stroke="#2563EB" stroke-width="1.66667" stroke-linecap="round" stroke-linejoin="round"/>
<path d="M13.0013 18.5H11.3346C10.8926 18.5 10.4687 18.6756 10.1561 18.9882C9.84356 19.3007 9.66797 19.7246 9.66797 20.1667V25.1667C9.66797 25.6087 9.84356 26.0326 10.1561 26.3452C10.4687 26.6577 10.8926 26.8333 11.3346 26.8333H13.0013" stroke="#2563EB" stroke-width="1.66667" stroke-linecap="round" stroke-linejoin="round"/>
<path d="M23 16H24.6667C25.1087 16 25.5326 16.1756 25.8452 16.4882C26.1577 16.8007 26.3333 17.2246 26.3333 17.6667V25.1667C26.3333 25.6087 26.1577 26.0326 25.8452 26.3452C25.5326 26.6577 25.1087 26.8333 24.6667 26.8333H23" stroke="#2563EB" stroke-width="1.66667" stroke-linecap="round" stroke-linejoin="round"/>
<path d="M16.332 13.5H19.6654" stroke="#2563EB" stroke-width="1.66667" stroke-linecap="round" stroke-linejoin="round"/>
<path d="M16.332 16.832H19.6654" stroke="#2563EB" stroke-width="1.66667" stroke-linecap="round" stroke-linejoin="round"/>
<path d="M16.332 20.168H19.6654" stroke="#2563EB" stroke-width="1.66667" stroke-linecap="round" stroke-linejoin="round"/>
<path d="M16.332 23.5H19.6654" stroke="#2563EB" stroke-width="1.66667" stroke-linecap="round" stroke-linejoin="round"/>
</svg>
