<svg width="37" height="36" viewBox="0 0 37 36" fill="none" xmlns="http://www.w3.org/2000/svg">
<rect x="0.667969" width="36" height="36" rx="18" fill="#F3F4F6"/>
<path d="M13.668 26.3346V11.3346C13.668 10.8926 13.8436 10.4687 14.1561 10.1561C14.4687 9.84356 14.8926 9.66797 15.3346 9.66797H22.0013C22.4433 9.66797 22.8673 9.84356 23.1798 10.1561C23.4924 10.4687 23.668 10.8926 23.668 11.3346V26.3346H13.668Z" stroke="#6B7280" stroke-width="1.66667" stroke-linecap="round" stroke-linejoin="round"/>
<path d="M13.6693 18H12.0026C11.5606 18 11.1367 18.1756 10.8241 18.4882C10.5115 18.8007 10.3359 19.2246 10.3359 19.6667V24.6667C10.3359 25.1087 10.5115 25.5326 10.8241 25.8452C11.1367 26.1577 11.5606 26.3333 12.0026 26.3333H13.6693" stroke="#6B7280" stroke-width="1.66667" stroke-linecap="round" stroke-linejoin="round"/>
<path d="M23.668 15.5H25.3346C25.7767 15.5 26.2006 15.6756 26.5131 15.9882C26.8257 16.3007 27.0013 16.7246 27.0013 17.1667V24.6667C27.0013 25.1087 26.8257 25.5326 26.5131 25.8452C26.2006 26.1577 25.7767 26.3333 25.3346 26.3333H23.668" stroke="#6B7280" stroke-width="1.66667" stroke-linecap="round" stroke-linejoin="round"/>
<path d="M17 13H20.3333" stroke="#6B7280" stroke-width="1.66667" stroke-linecap="round" stroke-linejoin="round"/>
<path d="M17 16.332H20.3333" stroke="#6B7280" stroke-width="1.66667" stroke-linecap="round" stroke-linejoin="round"/>
<path d="M17 19.668H20.3333" stroke="#6B7280" stroke-width="1.66667" stroke-linecap="round" stroke-linejoin="round"/>
<path d="M17 23H20.3333" stroke="#6B7280" stroke-width="1.66667" stroke-linecap="round" stroke-linejoin="round"/>
</svg>
