<svg width="36" height="36" viewBox="0 0 36 36" fill="none" xmlns="http://www.w3.org/2000/svg">
<rect width="36" height="36" rx="18" fill="#1454A9" fill-opacity="0.1"/>
<path d="M20.8983 18.7422L22.1608 25.8472C22.1749 25.9309 22.1632 26.0168 22.1271 26.0936C22.0911 26.1705 22.0324 26.2344 21.959 26.277C21.8857 26.3196 21.801 26.3388 21.7164 26.3319C21.6319 26.3251 21.5514 26.2926 21.4858 26.2389L18.5024 23.9997C18.3584 23.8921 18.1835 23.834 18.0037 23.834C17.8239 23.834 17.649 23.8921 17.5049 23.9997L14.5166 26.238C14.451 26.2917 14.3707 26.3241 14.2862 26.331C14.2017 26.3378 14.1172 26.3187 14.0438 26.2762C13.9705 26.2338 13.9118 26.17 13.8757 26.0933C13.8396 26.0166 13.8277 25.9308 13.8416 25.8472L15.1033 18.7422" stroke="#1454A9" stroke-width="1.66667" stroke-linecap="round" stroke-linejoin="round"/>
<path d="M18 19.668C20.7614 19.668 23 17.4294 23 14.668C23 11.9065 20.7614 9.66797 18 9.66797C15.2386 9.66797 13 11.9065 13 14.668C13 17.4294 15.2386 19.668 18 19.668Z" stroke="#1454A9" stroke-width="1.66667" stroke-linecap="round" stroke-linejoin="round"/>
</svg>
