<svg width="48" height="48" viewBox="0 0 48 48" fill="none" xmlns="http://www.w3.org/2000/svg">
<path d="M26.4 28.7999C26.4 30.9199 25.48 32.8399 24 34.1599C22.72 35.3199 21.04 35.9999 19.2 35.9999C15.22 35.9999 12 32.7799 12 28.7999C12 25.4799 14.26 22.6799 17.3 21.8599C18.12 23.9399 19.9 25.5599 22.1 26.1599C22.7 26.3199 23.34 26.4199 24 26.4199C24.66 26.4199 25.3 26.3399 25.9 26.1599C26.22 26.9599 26.4 27.8599 26.4 28.7999Z" stroke="#054CA3" stroke-width="1.5" stroke-linecap="round" stroke-linejoin="round"/>
<path d="M31.2 19.2C31.2 20.14 31.02 21.04 30.7 21.86C29.88 23.94 28.1 25.56 25.9 26.16C25.3 26.32 24.66 26.42 24 26.42C23.34 26.42 22.7 26.34 22.1 26.16C19.9 25.56 18.12 23.96 17.3 21.86C16.98 21.04 16.8 20.14 16.8 19.2C16.8 15.22 20.02 12 24 12C27.98 12 31.2 15.22 31.2 19.2Z" stroke="#054CA3" stroke-width="1.5" stroke-linecap="round" stroke-linejoin="round"/>
<path d="M36 28.7999C36 32.7799 32.78 35.9998 28.8 35.9998C26.96 35.9998 25.28 35.2999 24 34.1599C25.48 32.8599 26.4 30.9399 26.4 28.7999C26.4 27.8599 26.22 26.9598 25.9 26.1398C28.1 25.5398 29.88 23.9398 30.7 21.8398C33.74 22.6798 36 25.4799 36 28.7999Z" stroke="#054CA3" stroke-width="1.5" stroke-linecap="round" stroke-linejoin="round"/>
<path d="M18 44H30C40 44 44 40 44 30V18C44 8 40 4 30 4H18C8 4 4 8 4 18V30C4 40 8 44 18 44Z" stroke="#054CA3" stroke-width="1.5" stroke-linecap="round" stroke-linejoin="round"/>
</svg>
