<svg width="56" height="56" viewBox="0 0 56 56" fill="none" xmlns="http://www.w3.org/2000/svg">
<circle cx="28" cy="28" r="28" fill="#9F4EC4"/>
<path fill-rule="evenodd" clip-rule="evenodd" d="M24.6706 18.7787C23.5282 18.7787 22.5483 19.7552 22.5483 21.0274V21.8735C22.5483 21.9549 22.6142 22.0208 22.6956 22.0208H23.6089V21.2649C23.6089 20.5136 24.2 19.8495 24.9955 19.8495H30.9738C31.7693 19.8495 32.3605 20.5136 32.3605 21.2649V22.0208H33.3062C33.3876 22.0208 33.4535 21.9549 33.4535 21.8735V21.0274C33.4535 19.7552 32.4736 18.7787 31.3312 18.7787H24.6706ZM21.0746 21.0274C21.0746 19.002 22.6549 17.3051 24.6706 17.3051H31.3312C33.3469 17.3051 34.9272 19.002 34.9272 21.0274V21.8735C34.9272 22.7688 34.2014 23.4945 33.3062 23.4945H30.8868V21.3232H25.0825V23.4945H22.6956C21.8004 23.4945 21.0746 22.7688 21.0746 21.8735V21.0274Z" fill="white"/>
<path d="M22.5483 21.0274C22.5483 19.7552 23.5282 18.7787 24.6706 18.7787H31.3312C32.4736 18.7787 33.4535 19.7552 33.4535 21.0274V21.8735C33.4535 21.9549 33.3876 22.0208 33.3062 22.0208H32.3605V21.2649C32.3605 20.5136 31.7693 19.8495 30.9738 19.8495H24.9955C24.2 19.8495 23.6089 20.5136 23.6089 21.2649V22.0208H22.6956C22.6142 22.0208 22.5483 21.9549 22.5483 21.8735V21.0274Z" fill="white"/>
<path fill-rule="evenodd" clip-rule="evenodd" d="M16.6825 23.4809C16.0149 23.4809 15.4737 24.0221 15.4737 24.6897V37.0125C15.4737 37.6801 16.0149 38.2213 16.6825 38.2213H18.9737V23.4809H16.6825ZM20.4474 23.4809V38.2213H22.2895V23.4809H20.4474ZM23.7632 23.4809V38.2213H32.2368V23.4809H23.7632ZM33.7105 23.4809V38.2213H35.5526V23.4809H33.7105ZM37.0263 23.4809V38.2213H39.3175C39.9851 38.2213 40.5263 37.6801 40.5263 37.0125V24.6897C40.5263 24.0221 39.9851 23.4809 39.3175 23.4809H37.0263ZM14 24.6897C14 23.2082 15.201 22.0072 16.6825 22.0072H39.3175C40.799 22.0072 42 23.2082 42 24.6897V37.0125C42 38.494 40.799 39.695 39.3175 39.695H16.6825C15.201 39.695 14 38.494 14 37.0125V24.6897Z" fill="white"/>
<path d="M20.4474 38.2213V23.4809H22.2895V38.2213H20.4474Z" fill="white"/>
<path d="M33.7105 38.2213V23.4809H35.5526V38.2213H33.7105Z" fill="white"/>
</svg>
